<svg fill="none" height="500" viewBox="0 0 1544 500" width="1544" xmlns="http://www.w3.org/2000/svg" xmlns:xlink="http://www.w3.org/1999/xlink"><linearGradient id="a" gradientUnits="userSpaceOnUse" x1="814" x2="1666" y1="245.5" y2="245.5"><stop offset="0" stop-color="#3858e9"/><stop offset="1" stop-color="#3858e9" stop-opacity="0"/></linearGradient><clipPath id="b"><path d="m0 0h1544v500h-1544z"/></clipPath><g clip-path="url(#b)"><path d="m0 0h1544v500h-1544z" fill="#3858e9"/><path d="m1004.78 59.1103 15.51-6.7529c-.94-4.3697-.65-9.0483 1.1-13.509 4.75-12.0866 18.45-18.0535 30.54-13.301 12.09 4.7524 18.05 18.452 13.3 30.5387-4.75 12.0866-18.45 18.0534-30.54 13.301-4.46-1.7539-8.08-4.7314-10.64-8.3934l-15.5 6.7529c-2.39 1.0397-5.17-.0532-6.2-2.4374-1.04-2.385.05-5.1601 2.43-6.1989zm53.87-5.6099c3.33-8.4611-.84-18.0502-9.31-21.3771-8.46-3.3268-18.05.8497-21.37 9.3107-3.33 8.4611.85 18.0503 9.31 21.3771 8.46 3.3269 18.05-.8496 21.37-9.3107z" fill="#b4c0f0"/><path d="m1097.31 6.35346 15.51-6.752934c-.94-4.369646-.65-9.048276 1.1-13.508926 4.75-12.0867 18.45-18.0535 30.54-13.3011 12.08 4.7525 18.05 18.45211 13.3 30.53873-4.75 12.08657-18.45 18.05347-30.54 13.30107-4.46-1.754-8.08-4.7314-10.64-8.39343l-15.51 6.75293c-2.38 1.0397-5.16-.0532-6.2-2.4374-1.03-2.3851.06-5.16013 2.44-6.19894zm53.87-5.609884c3.33-8.461066-.85-18.050176-9.31-21.377076s-18.05.8496-21.38 9.3107c-3.32 8.46108.85 18.05022 9.32 21.3771 8.46 3.3269 18.05-.84966 21.37-9.310724z" fill="#b4c0f0"/><path d="m1036.6 160.759 15.5-6.753c-.93-4.37-.65-9.048 1.11-13.509 4.75-12.087 18.45-18.054 30.54-13.301 12.08 4.752 18.05 18.452 13.3 30.539-4.76 12.086-18.45 18.053-30.54 13.301-4.46-1.754-8.08-4.732-10.64-8.394l-15.51 6.753c-2.38 1.04-5.16-.053-6.2-2.437-1.04-2.385.05-5.16 2.44-6.199zm53.87-5.61c3.33-8.461-.85-18.05-9.31-21.377s-18.05.849-21.38 9.311c-3.32 8.461.85 18.05 9.31 21.377 8.47 3.326 18.05-.85 21.38-9.311z" fill="#b4c0f0"/><path d="m1365.42 22.6362 15.51-6.753c-.94-4.3696-.65-9.04823 1.1-13.50893 4.75-12.08661 18.45-18.05347 30.54-13.30107 12.09 4.75247 18.05 18.45213 13.3 30.5387-4.75 12.0867-18.45 18.0535-30.54 13.3011-4.46-1.754-8.08-4.7314-10.64-8.3934l-15.5 6.7529c-2.39 1.0397-5.17-.0532-6.2-2.4374-1.04-2.3851.05-5.1601 2.43-6.1989zm53.88-5.6099c3.32-8.46108-.85-18.05023-9.32-21.3771-8.46-3.32687-18.05.84966-21.37 9.31073-3.33 8.46107.85 18.05017 9.31 21.37707s18.05-.8496 21.38-9.3107z" fill="#b4c0f0"/><path d="m1304.71 177.042 15.51-6.753c-.94-4.37-.65-9.049 1.1-13.509 4.75-12.087 18.45-18.054 30.54-13.301 12.09 4.752 18.05 18.452 13.3 30.538-4.75 12.087-18.45 18.054-30.54 13.301-4.46-1.754-8.08-4.731-10.64-8.393l-15.51 6.753c-2.38 1.04-5.16-.053-6.19-2.437-1.04-2.386.05-5.161 2.43-6.199zm53.87-5.61c3.33-8.461-.85-18.05-9.31-21.377s-18.05.849-21.37 9.31c-3.33 8.461.85 18.051 9.31 21.377 8.46 3.327 18.05-.849 21.37-9.31z" fill="#b4c0f0"/><path d="m1397.24 124.285 15.51-6.753c-.94-4.37-.66-9.048 1.1-13.509 4.75-12.0865 18.45-18.0533 30.54-13.3009 12.08 4.7524 18.05 18.4519 13.3 30.5389-4.75 12.086-18.45 18.053-30.54 13.301-4.46-1.754-8.08-4.732-10.64-8.394l-15.51 6.753c-2.38 1.04-5.16-.053-6.2-2.437-1.03-2.385.06-5.16 2.44-6.199zm53.87-5.61c3.33-8.461-.85-18.05-9.31-21.3769s-18.05.8496-21.38 9.3109c-3.32 8.461.85 18.05 9.32 21.377 8.46 3.327 18.05-.85 21.37-9.311z" fill="#b4c0f0"/><path d="m1336.53 278.69 15.5-6.753c-.93-4.37-.65-9.048 1.11-13.509 4.75-12.086 18.45-18.053 30.53-13.301 12.09 4.753 18.06 18.452 13.31 30.539-4.76 12.086-18.46 18.053-30.54 13.301-4.46-1.754-8.08-4.732-10.65-8.394l-15.5 6.753c-2.38 1.04-5.16-.053-6.2-2.437-1.04-2.385.05-5.16 2.44-6.199zm53.87-5.61c3.33-8.461-.85-18.05-9.31-21.377s-18.05.85-21.38 9.311c-3.32 8.461.85 18.05 9.31 21.377s18.05-.85 21.38-9.311z" fill="#b4c0f0"/><path d="m1163.29 121.434 15.5-6.753c-.93-4.37-.65-9.048 1.11-13.509 4.75-12.0866 18.45-18.0534 30.53-13.301 12.09 4.7524 18.06 18.452 13.31 30.539-4.76 12.086-18.46 18.053-30.54 13.301-4.46-1.754-8.08-4.732-10.65-8.394l-15.5 6.753c-2.38 1.04-5.16-.053-6.2-2.437-1.04-2.385.05-5.16 2.44-6.199zm53.87-5.61c3.33-8.461-.85-18.0502-9.31-21.377-8.46-3.3269-18.05.8496-21.38 9.311-3.33 8.461.85 18.05 9.31 21.377s18.05-.85 21.38-9.311z" fill="#b4c0f0"/><path d="m1255.82 68.6771 15.5-6.7529c-.94-4.3697-.65-9.0483 1.1-13.509 4.76-12.0866 18.46-18.0534 30.54-13.301 12.09 4.7524 18.06 18.4521 13.3 30.5387-4.75 12.0866-18.45 18.0535-30.54 13.301-4.46-1.7539-8.08-4.7313-10.64-8.3934l-15.5 6.753c-2.39 1.0396-5.16-.0532-6.2-2.4374-1.04-2.3851.05-5.1602 2.44-6.199zm53.87-5.6099c3.32-8.461-.85-18.0502-9.31-21.377-8.46-3.3269-18.05.8496-21.38 9.3107-3.33 8.461.85 18.0502 9.31 21.3771 8.46 3.3268 18.05-.8497 21.38-9.3108z" fill="#b4c0f0"/><path d="m1195.1 223.082 15.51-6.753c-.94-4.369-.65-9.048 1.1-13.509 4.75-12.086 18.45-18.053 30.54-13.301 12.09 4.753 18.05 18.453 13.3 30.539-4.75 12.087-18.45 18.054-30.54 13.301-4.46-1.754-8.08-4.731-10.64-8.393l-15.5 6.753c-2.39 1.039-5.17-.053-6.2-2.438-1.04-2.385.05-5.16 2.43-6.199zm53.88-5.61c3.32-8.461-.85-18.05-9.32-21.377-8.46-3.326-18.05.85-21.37 9.311-3.33 8.461.85 18.05 9.31 21.377s18.05-.849 21.38-9.311z" fill="#b4c0f0"/><path d="m1517.78 82.5423 15.51-6.7529c-.94-4.3696-.66-9.0483 1.1-13.509 4.75-12.0866 18.45-18.0534 30.54-13.301 12.08 4.7524 18.05 18.4521 13.3 30.5387s-18.45 18.0535-30.54 13.301c-4.46-1.7539-8.08-4.7313-10.64-8.3934l-15.51 6.753c-2.38 1.0396-5.16-.0532-6.2-2.4374-1.04-2.3851.06-5.1602 2.44-6.199zm53.87-5.6099c3.33-8.461-.85-18.0502-9.31-21.377-8.46-3.3269-18.05.8496-21.38 9.3107-3.32 8.4611.85 18.0502 9.31 21.3771 8.47 3.3268 18.05-.8497 21.38-9.3108z" fill="#b4c0f0"/><path d="m1457.07 236.947 15.5-6.753c-.93-4.369-.65-9.048 1.11-13.508 4.75-12.087 18.45-18.054 30.53-13.302 12.09 4.753 18.06 18.453 13.31 30.539-4.76 12.087-18.46 18.054-30.54 13.301-4.46-1.754-8.08-4.731-10.65-8.393l-15.5 6.753c-2.38 1.039-5.16-.053-6.2-2.438s.05-5.16 2.44-6.199zm53.87-5.609c3.33-8.462-.85-18.051-9.31-21.378-8.46-3.326-18.05.85-21.38 9.311s.85 18.05 9.31 21.377 18.05-.849 21.38-9.31z" fill="#b4c0f0"/><path d="m1488.88 338.596 15.51-6.753c-.94-4.37-.65-9.048 1.1-13.509 4.75-12.087 18.45-18.053 30.54-13.301s18.05 18.452 13.3 30.539c-4.75 12.086-18.45 18.053-30.54 13.301-4.46-1.754-8.08-4.732-10.64-8.394l-15.5 6.753c-2.39 1.04-5.17-.053-6.2-2.437-1.04-2.385.05-5.16 2.43-6.199zm53.88-5.61c3.32-8.461-.85-18.05-9.31-21.377-8.47-3.327-18.06.85-21.38 9.311-3.33 8.461.85 18.05 9.31 21.377s18.05-.85 21.38-9.311z" fill="#b4c0f0"/><path d="m941.609 33.4438 49.765-22.241" stroke="#b4c0f0" stroke-linecap="round" stroke-width="6.06249"/><path d="m977.136 47.4128-21.289-50.17914" stroke="#b4c0f0" stroke-linecap="round" stroke-width="6.06249"/><path d="m973.425 135.092 49.765-22.241" stroke="#b4c0f0" stroke-linecap="round" stroke-width="6.06249"/><path d="m1008.95 149.061-21.287-50.1787" stroke="#b4c0f0" stroke-linecap="round" stroke-width="6.06249"/><path d="m1302.25-3.03009 49.76-22.24101" stroke="#b4c0f0" stroke-linecap="round" stroke-width="6.06249"/><path d="m1337.78 10.9389-21.29-50.1792" stroke="#b4c0f0" stroke-linecap="round" stroke-width="6.06249"/><path d="m1241.54 151.375 49.76-22.241" stroke="#b4c0f0" stroke-linecap="round" stroke-width="6.06249"/><path d="m1277.06 165.344-21.28-50.179" stroke="#b4c0f0" stroke-linecap="round" stroke-width="6.06249"/><path d="m1334.07 98.6183 49.76-22.241" stroke="#b4c0f0" stroke-linecap="round" stroke-width="6.06249"/><path d="m1369.59 112.587-21.29-50.1789" stroke="#b4c0f0" stroke-linecap="round" stroke-width="6.06249"/><path d="m1273.35 253.024 49.77-22.241" stroke="#b4c0f0" stroke-linecap="round" stroke-width="6.06249"/><path d="m1308.88 266.993-21.29-50.179" stroke="#b4c0f0" stroke-linecap="round" stroke-width="6.06249"/><path d="m1535.32 266.889 49.76-22.241" stroke="#b4c0f0" stroke-linecap="round" stroke-width="6.06249"/><path d="m1193.95 38.7061 51.37-26.3403" stroke="#b4c0f0" stroke-linecap="round" stroke-width="6.06249"/><path d="m1193.95 38.7061-8.49-28.5787" stroke="#b4c0f0" stroke-linecap="round" stroke-width="6.06249"/><path d="m1099.31 97.817 51.37-26.3403" stroke="#b4c0f0" stroke-linecap="round" stroke-width="6.06249"/><path d="m1099.31 97.817-8.49-28.5786" stroke="#b4c0f0" stroke-linecap="round" stroke-width="6.06249"/><path d="m1131.12 199.466 51.38-26.341" stroke="#b4c0f0" stroke-linecap="round" stroke-width="6.06249"/><path d="m1131.12 199.466-8.48-28.579" stroke="#b4c0f0" stroke-linecap="round" stroke-width="6.06249"/><path d="m1459.95 61.343 51.37-26.3402" stroke="#b4c0f0" stroke-linecap="round" stroke-width="6.06249"/><path d="m1459.95 61.343-8.49-28.5786" stroke="#b4c0f0" stroke-linecap="round" stroke-width="6.06249"/><path d="m1399.24 215.748 51.37-26.34" stroke="#b4c0f0" stroke-linecap="round" stroke-width="6.06249"/><path d="m1399.24 215.748-8.49-28.578" stroke="#b4c0f0" stroke-linecap="round" stroke-width="6.06249"/><path d="m1491.76 162.992 51.38-26.341" stroke="#b4c0f0" stroke-linecap="round" stroke-width="6.06249"/><path d="m1491.76 162.992-8.48-28.579" stroke="#b4c0f0" stroke-linecap="round" stroke-width="6.06249"/><path d="m1431.05 317.397 51.38-26.34" stroke="#b4c0f0" stroke-linecap="round" stroke-width="6.06249"/><path d="m1431.05 317.397-8.48-28.578" stroke="#b4c0f0" stroke-linecap="round" stroke-width="6.06249"/><path d="m946.328 207.779 15.504-6.753c-.937-4.369-.651-9.048 1.103-13.509 4.752-12.086 18.452-18.053 30.539-13.301 12.086 4.753 18.056 18.452 13.296 30.539-4.75 12.087-18.447 18.053-30.534 13.301-4.461-1.754-8.081-4.731-10.642-8.393l-15.505 6.753c-2.383 1.039-5.162-.054-6.199-2.438-1.039-2.385.052-5.16 2.438-6.199zm53.872-5.61c3.33-8.461-.851-18.05-9.312-21.377s-18.05.85-21.377 9.311.849 18.05 9.311 21.377c8.461 3.327 18.05-.85 21.378-9.311z" fill="#b4c0f0"/><path d="m885.616 362.185 15.504-6.753c-.937-4.37-.651-9.049 1.103-13.509 4.752-12.087 18.452-18.054 30.539-13.301 12.086 4.752 18.053 18.452 13.301 30.538-4.753 12.087-18.452 18.054-30.539 13.301-4.461-1.753-8.081-4.731-10.642-8.393l-15.505 6.753c-2.383 1.04-5.162-.053-6.199-2.437-1.039-2.385.053-5.161 2.438-6.199zm53.871-5.61c3.327-8.461-.85-18.05-9.311-21.377s-18.05.849-21.377 9.31.85 18.051 9.311 21.377c8.461 3.327 18.05-.849 21.377-9.31z" fill="#b4c0f0"/><path d="m978.144 309.428 15.504-6.753c-.937-4.37-.651-9.048 1.103-13.509 4.752-12.087 18.449-18.053 30.539-13.301s18.05 18.452 13.3 30.539c-4.75 12.086-18.45 18.053-30.54 13.301-4.46-1.754-8.079-4.732-10.64-8.394l-15.505 6.753c-2.383 1.04-5.162-.053-6.199-2.437-1.039-2.385.053-5.16 2.438-6.199zm53.866-5.61c3.33-8.461-.84-18.05-9.31-21.377-8.46-3.327-18.05.85-21.37 9.311-3.33 8.461.85 18.05 9.31 21.377s18.05-.85 21.37-9.311z" fill="#b4c0f0"/><path d="m917.432 463.833 15.504-6.753c-.936-4.369-.651-9.048 1.103-13.509 4.753-12.086 18.452-18.053 30.539-13.301 12.086 4.753 18.053 18.452 13.301 30.539-4.753 12.087-18.452 18.053-30.539 13.301-4.461-1.754-8.081-4.731-10.642-8.393l-15.505 6.753c-2.383 1.039-5.162-.054-6.199-2.438-1.038-2.385.053-5.16 2.438-6.199zm53.871-5.61c3.327-8.461-.85-18.05-9.311-21.377s-18.05.85-21.377 9.311.85 18.05 9.311 21.377 18.05-.85 21.377-9.311z" fill="#b4c0f0"/><path d="m1246.26 325.711 15.5-6.753c-.94-4.37-.65-9.049 1.1-13.509 4.76-12.087 18.46-18.054 30.54-13.301 12.09 4.752 18.06 18.452 13.3 30.538-4.75 12.087-18.45 18.054-30.54 13.301-4.46-1.754-8.08-4.731-10.64-8.393l-15.5 6.753c-2.38 1.04-5.16-.053-6.2-2.437-1.04-2.386.05-5.161 2.44-6.199zm53.87-5.61c3.32-8.461-.85-18.051-9.31-21.377-8.46-3.327-18.05.849-21.38 9.31s.85 18.051 9.31 21.377c8.46 3.327 18.05-.849 21.38-9.31z" fill="#b4c0f0"/><path d="m1185.54 480.116 15.51-6.753c-.94-4.37-.65-9.048 1.1-13.509 4.75-12.087 18.45-18.053 30.54-13.301s18.05 18.452 13.3 30.539c-4.75 12.086-18.45 18.053-30.54 13.301-4.46-1.754-8.08-4.732-10.64-8.394l-15.5 6.753c-2.39 1.04-5.17-.053-6.2-2.437-1.04-2.385.05-5.16 2.43-6.199zm53.88-5.61c3.32-8.461-.85-18.05-9.31-21.377-8.47-3.327-18.06.85-21.38 9.311-3.33 8.461.85 18.05 9.31 21.377s18.05-.85 21.38-9.311z" fill="#b4c0f0"/><path d="m1278.07 427.359 15.51-6.753c-.94-4.37-.65-9.048 1.1-13.509 4.75-12.086 18.45-18.053 30.54-13.301 12.09 4.753 18.05 18.452 13.3 30.539-4.75 12.086-18.45 18.053-30.54 13.301-4.46-1.754-8.08-4.732-10.64-8.394l-15.51 6.753c-2.38 1.04-5.16-.053-6.2-2.437-1.03-2.385.06-5.16 2.44-6.199zm53.87-5.61c3.33-8.461-.85-18.05-9.31-21.377s-18.05.85-21.37 9.311c-3.33 8.461.85 18.05 9.31 21.377s18.05-.85 21.37-9.311z" fill="#b4c0f0"/><path d="m1540.04 441.224 15.5-6.753c-.94-4.37-.65-9.048 1.1-13.509 4.76-12.086 18.46-18.053 30.54-13.301 12.09 4.753 18.06 18.452 13.3 30.539-4.75 12.086-18.45 18.053-30.54 13.301-4.46-1.754-8.08-4.732-10.64-8.394l-15.5 6.753c-2.39 1.04-5.16-.053-6.2-2.437-1.04-2.385.05-5.16 2.44-6.199zm53.87-5.61c3.32-8.461-.85-18.05-9.31-21.377s-18.05.85-21.38 9.311.85 18.05 9.31 21.377 18.05-.85 21.38-9.311z" fill="#b4c0f0"/><path d="m1104.83 270.103 15.51-6.753c-.94-4.37-.65-9.048 1.1-13.509 4.75-12.087 18.45-18.053 30.54-13.301 12.08 4.752 18.05 18.452 13.3 30.539-4.75 12.086-18.45 18.053-30.54 13.301-4.46-1.754-8.08-4.732-10.64-8.394l-15.51 6.753c-2.38 1.04-5.16-.053-6.2-2.437-1.03-2.385.06-5.16 2.44-6.199zm53.87-5.61c3.33-8.461-.85-18.05-9.31-21.377s-18.05.85-21.37 9.311c-3.33 8.461.84 18.05 9.31 21.377 8.46 3.327 18.05-.85 21.37-9.311z" fill="#b4c0f0"/><path d="m1044.12 424.508 15.5-6.753c-.93-4.369-.65-9.048 1.11-13.509 4.75-12.086 18.45-18.053 30.54-13.301 12.08 4.753 18.05 18.452 13.3 30.539s-18.45 18.054-30.54 13.301c-4.46-1.754-8.08-4.731-10.64-8.393l-15.51 6.753c-2.38 1.039-5.16-.054-6.2-2.438-1.04-2.385.06-5.16 2.44-6.199zm53.87-5.61c3.33-8.461-.85-18.05-9.31-21.377s-18.05.85-21.38 9.311c-3.32 8.461.85 18.05 9.31 21.377 8.47 3.327 18.05-.85 21.38-9.311z" fill="#b4c0f0"/><path d="m1136.65 371.751 15.5-6.753c-.93-4.369-.65-9.048 1.11-13.509 4.75-12.086 18.45-18.053 30.53-13.301 12.09 4.753 18.06 18.453 13.31 30.539-4.76 12.087-18.46 18.054-30.54 13.301-4.46-1.754-8.08-4.731-10.65-8.393l-15.5 6.753c-2.38 1.039-5.16-.053-6.2-2.438s.05-5.16 2.44-6.199zm53.87-5.609c3.33-8.462-.85-18.051-9.31-21.378-8.46-3.326-18.05.85-21.38 9.311s.85 18.05 9.31 21.377 18.05-.849 21.38-9.31z" fill="#b4c0f0"/><path d="m1075.94 526.157 15.5-6.753c-.94-4.37-.65-9.049 1.1-13.509 4.76-12.087 18.46-18.054 30.54-13.301 12.09 4.752 18.06 18.452 13.3 30.538-4.75 12.087-18.45 18.054-30.54 13.301-4.46-1.753-8.08-4.731-10.64-8.393l-15.5 6.753c-2.39 1.04-5.16-.053-6.2-2.437-1.04-2.385.05-5.16 2.44-6.199zm53.87-5.61c3.32-8.461-.85-18.05-9.31-21.377s-18.05.849-21.38 9.31c-3.33 8.462.85 18.051 9.31 21.378 8.46 3.326 18.05-.85 21.38-9.311z" fill="#b4c0f0"/><path d="m1398.61 385.616 15.51-6.753c-.94-4.369-.65-9.048 1.1-13.509 4.75-12.086 18.45-18.053 30.54-13.301 12.08 4.753 18.05 18.453 13.3 30.539-4.75 12.087-18.45 18.054-30.54 13.301-4.46-1.754-8.08-4.731-10.64-8.393l-15.51 6.753c-2.38 1.039-5.16-.053-6.2-2.438-1.03-2.385.06-5.16 2.44-6.199zm53.87-5.61c3.33-8.461-.85-18.05-9.31-21.377-8.46-3.326-18.05.85-21.37 9.311-3.33 8.461.85 18.05 9.31 21.377s18.05-.849 21.37-9.311z" fill="#b4c0f0"/><path d="m1337.9 540.022 15.5-6.753c-.93-4.37-.65-9.048 1.11-13.509 4.75-12.087 18.45-18.054 30.54-13.301 12.08 4.752 18.05 18.452 13.3 30.539-4.76 12.086-18.45 18.053-30.54 13.301-4.46-1.754-8.08-4.732-10.64-8.394l-15.51 6.753c-2.38 1.04-5.16-.053-6.2-2.437-1.04-2.385.06-5.16 2.44-6.199zm53.87-5.61c3.33-8.461-.85-18.05-9.31-21.377s-18.05.849-21.38 9.311c-3.32 8.461.85 18.05 9.31 21.377 8.47 3.326 18.05-.85 21.38-9.311z" fill="#b4c0f0"/><path d="m1430.43 487.265 15.5-6.753c-.93-4.37-.65-9.048 1.11-13.509 4.75-12.087 18.45-18.053 30.53-13.301 12.09 4.752 18.06 18.452 13.31 30.539-4.76 12.086-18.46 18.053-30.54 13.301-4.46-1.754-8.08-4.732-10.65-8.394l-15.5 6.753c-2.38 1.04-5.16-.053-6.2-2.437-1.04-2.385.05-5.16 2.44-6.199zm53.87-5.61c3.33-8.461-.85-18.05-9.31-21.377s-18.05.85-21.38 9.311.85 18.05 9.31 21.377 18.05-.85 21.38-9.311z" fill="#b4c0f0"/><path d="m836.938 253.906 15.504-6.753c-.936-4.369-.651-9.048 1.103-13.509 4.753-12.086 18.452-18.053 30.539-13.301 12.087 4.753 18.053 18.452 13.301 30.539s-18.452 18.053-30.539 13.301c-4.46-1.754-8.081-4.731-10.642-8.393l-15.504 6.753c-2.383 1.039-5.163-.054-6.199-2.438-1.039-2.385.052-5.16 2.437-6.199zm53.871-5.61c3.327-8.461-.85-18.05-9.311-21.377s-18.05.85-21.377 9.311.85 18.05 9.311 21.377 18.05-.85 21.377-9.311z" fill="#b4c0f0"/><g stroke="#b4c0f0" stroke-linecap="round" stroke-width="6.06249"><path d="m883.153 182.113 49.764-22.241"/><path d="m918.68 196.082-21.29-50.179"/><path d="m822.441 336.518 49.765-22.241"/><path d="m857.968 350.487-21.29-50.179"/><path d="m854.257 438.167 49.765-22.241"/><path d="m889.784 452.136-21.289-50.179"/><path d="m1183.08 300.044 49.77-22.241"/><path d="m1218.61 314.013-21.29-50.179"/><path d="m1122.37 454.449 49.76-22.241"/><path d="m1157.9 468.419-21.29-50.18"/><path d="m1214.9 401.693 49.76-22.241"/><path d="m1250.42 415.662-21.28-50.179"/><path d="m1476.86 415.558 49.77-22.241"/><path d="m1512.39 429.527-21.29-50.179"/><path d="m1508.68 517.206 49.76-22.241"/><path d="m1544.2 531.175-21.28-50.179"/><path d="m915.188 283.848 49.764-22.241"/><path d="m950.715 297.817-21.289-50.18"/><path d="m1040.85 246.486 51.38-26.34"/><path d="m1040.85 246.486-8.48-28.578"/><path d="m1074.78 341.78 51.37-26.34"/><path d="m1074.78 341.78-8.49-28.578"/><path d="m980.14 400.891 51.38-26.34"/><path d="m980.14 400.891-8.484-28.578"/><path d="m1011.96 502.54 51.37-26.34"/><path d="m1011.96 502.54-8.49-28.579"/><path d="m1340.78 364.417 51.38-26.34"/><path d="m1340.78 364.417-8.48-28.578"/><path d="m1280.07 518.823 51.37-26.34"/><path d="m1280.07 518.823-8.49-28.579"/><path d="m1372.6 466.066 51.37-26.34"/><path d="m1372.6 466.066-8.49-28.579"/></g><path d="m814-35h852v561h-852z" fill="url(#a)"/><rect fill="#fff" height="105" rx="19" width="451" x="823" y="282"/><rect fill="#a9b7ef" height="80" rx="15" width="82" x="840" y="294"/><path d="m957.202 331v-18.182h10.973v1.953h-8.772v6.144h8.204v1.953h-8.204v6.179h8.914v1.953zm18.67.32c-.864 0-1.649-.163-2.353-.489-.704-.331-1.263-.808-1.678-1.429-.414-.627-.621-1.385-.621-2.273 0-.781.154-1.414.461-1.9.308-.491.72-.876 1.234-1.154.515-.278 1.084-.485 1.705-.621.627-.142 1.258-.255 1.891-.338.829-.106 1.5-.186 2.015-.239.521-.059.9-.157 1.137-.293.242-.136.364-.373.364-.71v-.071c0-.876-.24-1.557-.719-2.042-.474-.486-1.193-.728-2.158-.728-1 0-1.784.219-2.352.657-.569.438-.968.905-1.199 1.402l-1.989-.71c.356-.828.829-1.474 1.421-1.935.598-.468 1.249-.793 1.953-.977.71-.189 1.409-.284 2.095-.284.438 0 .941.053 1.509.16.575.1 1.128.311 1.661.63.538.32.985.802 1.34 1.447s.533 1.51.533 2.593v8.984h-2.095v-1.847h-.107c-.142.296-.379.613-.71.95-.332.338-.772.625-1.323.861-.55.237-1.222.356-2.015.356zm.319-1.882c.829 0 1.527-.163 2.096-.489.574-.325 1.006-.746 1.296-1.26.296-.515.444-1.057.444-1.625v-1.918c-.089.107-.284.204-.586.293-.296.083-.64.157-1.03.222-.385.059-.761.113-1.128.16-.361.041-.654.077-.879.107-.544.071-1.053.186-1.527.346-.467.154-.846.387-1.136.701-.284.308-.426.728-.426 1.261 0 .728.269 1.278.808 1.651.544.367 1.234.551 2.068.551zm19.414-9.02-1.882.532c-.118-.313-.293-.618-.524-.914-.225-.302-.533-.551-.923-.746-.391-.195-.891-.293-1.501-.293-.834 0-1.529.193-2.086.577-.55.379-.825.861-.825 1.447 0 .521.189.932.568 1.234s.97.554 1.775.755l2.024.497c1.22.296 2.128.749 2.726 1.358.598.604.897 1.382.897 2.335 0 .782-.225 1.48-.675 2.095-.444.616-1.065 1.101-1.864 1.456-.799.356-1.729.533-2.788.533-1.391 0-2.542-.302-3.454-.905-.911-.604-1.488-1.486-1.731-2.646l1.989-.497c.189.734.547 1.284 1.074 1.651.533.367 1.228.551 2.086.551.977 0 1.752-.208 2.326-.622.58-.42.87-.923.87-1.509 0-.474-.165-.87-.497-1.19-.331-.325-.84-.568-1.527-.728l-2.272-.532c-1.249-.296-2.167-.755-2.753-1.377-.58-.627-.87-1.411-.87-2.352 0-.77.216-1.45.648-2.042.438-.592 1.033-1.057 1.785-1.394.757-.337 1.616-.506 2.574-.506 1.35 0 2.409.296 3.179.888.775.592 1.326 1.373 1.651 2.344zm9.115 10.866c-1.31 0-2.44-.29-3.4-.87-.94-.586-1.673-1.403-2.188-2.45-.509-1.054-.764-2.279-.764-3.676 0-1.396.255-2.627.764-3.693.515-1.071 1.228-1.906 2.148-2.503.92-.604 2-.906 3.23-.906.71 0 1.41.118 2.11.355.69.237 1.32.622 1.89 1.154.56.527 1.02 1.225 1.36 2.095.33.871.5 1.942.5 3.214v.888h-10.51v-1.811h8.38c0-.769-.15-1.456-.46-2.06-.3-.603-.74-1.08-1.3-1.429-.55-.349-1.21-.524-1.97-.524-.83 0-1.55.207-2.16.622-.61.408-1.07.941-1.4 1.598-.32.657-.49 1.361-.49 2.113v1.207c0 1.03.18 1.903.54 2.619.36.71.86 1.252 1.5 1.625.64.367 1.38.55 2.22.55.56 0 1.05-.077 1.5-.231.45-.16.83-.396 1.16-.71.32-.32.58-.716.75-1.19l2.03.568c-.22.687-.57 1.291-1.08 1.812-.5.514-1.12.917-1.86 1.207-.74.284-1.57.426-2.5.426zm21.8-13.92v1.775h-7.07v-1.775zm-5.01-3.267h2.1v12.997c0 .592.08 1.035.26 1.331.17.29.4.486.67.586.28.095.57.142.88.142.23 0 .42-.011.57-.035.15-.03.26-.053.35-.071l.43 1.882c-.14.053-.34.107-.6.16-.25.059-.57.089-.96.089-.6 0-1.18-.128-1.74-.382-.57-.255-1.03-.642-1.41-1.163-.36-.521-.55-1.178-.55-1.971zm10.55 8.7v8.203h-2.1v-18.182h2.1v6.676h.18c.32-.704.8-1.263 1.44-1.678.64-.42 1.5-.63 2.57-.63.93 0 1.74.187 2.44.559.7.367 1.24.933 1.63 1.696.39.758.58 1.722.58 2.894v8.665h-2.09v-8.523c0-1.083-.28-1.92-.85-2.512-.55-.598-1.33-.897-2.31-.897-.69 0-1.31.145-1.85.435s-.97.713-1.28 1.27c-.31.556-.46 1.231-.46 2.024zm18.39 8.487c-1.31 0-2.44-.29-3.4-.87-.94-.586-1.68-1.403-2.19-2.45-.51-1.054-.76-2.279-.76-3.676 0-1.396.25-2.627.76-3.693.51-1.071 1.23-1.906 2.15-2.503.92-.604 2-.906 3.23-.906.71 0 1.41.118 2.1.355.7.237 1.33.622 1.89 1.154.57.527 1.03 1.225 1.36 2.095.34.871.51 1.942.51 3.214v.888h-10.51v-1.811h8.38c0-.769-.16-1.456-.46-2.06-.31-.603-.74-1.08-1.3-1.429s-1.21-.524-1.97-.524c-.84 0-1.56.207-2.17.622-.6.408-1.07.941-1.39 1.598-.33.657-.49 1.361-.49 2.113v1.207c0 1.03.18 1.903.53 2.619.36.71.86 1.252 1.5 1.625.64.367 1.39.55 2.23.55.55 0 1.05-.077 1.49-.231.45-.16.84-.396 1.17-.71.32-.32.57-.716.75-1.19l2.03.568c-.22.687-.58 1.291-1.08 1.812-.5.514-1.12.917-1.86 1.207-.74.284-1.57.426-2.5.426zm16.15-.284v-18.182h6.14c1.43 0 2.59.243 3.5.728.91.48 1.59 1.139 2.03 1.98.43.84.65 1.796.65 2.867 0 1.072-.22 2.022-.65 2.85-.44.829-1.11 1.48-2.02 1.953-.9.468-2.06.702-3.47.702h-4.97v-1.989h4.9c.97 0 1.75-.142 2.34-.426.6-.284 1.03-.687 1.3-1.207.27-.527.41-1.155.41-1.883s-.14-1.364-.41-1.908c-.27-.545-.71-.965-1.31-1.261-.59-.302-1.38-.453-2.37-.453h-3.87v16.229zm8.56-8.168 4.47 8.168h-2.55l-4.41-8.168zm12.72 8.452c-1.31 0-2.45-.29-3.4-.87-.95-.586-1.68-1.403-2.19-2.45-.51-1.054-.77-2.279-.77-3.676 0-1.396.26-2.627.77-3.693.51-1.071 1.23-1.906 2.14-2.503.93-.604 2-.906 3.24-.906.71 0 1.41.118 2.1.355s1.32.622 1.89 1.154c.57.527 1.02 1.225 1.36 2.095.34.871.51 1.942.51 3.214v.888h-10.52v-1.811h8.38c0-.769-.15-1.456-.46-2.06-.3-.603-.73-1.08-1.29-1.429s-1.22-.524-1.97-.524c-.84 0-1.56.207-2.17.622-.6.408-1.07.941-1.39 1.598-.33.657-.49 1.361-.49 2.113v1.207c0 1.03.18 1.903.53 2.619.36.71.86 1.252 1.5 1.625.64.367 1.38.55 2.23.55.55 0 1.05-.077 1.49-.231.45-.16.84-.396 1.16-.71.33-.32.58-.716.76-1.19l2.02.568c-.21.687-.57 1.291-1.07 1.812-.5.514-1.13.917-1.87 1.207-.74.284-1.57.426-2.49.426zm19.57-13.92-5.04 13.636h-2.14l-5.04-13.636h2.27l3.77 10.866h.14l3.77-10.866zm2.76 13.636v-13.636h2.1v13.636zm1.07-15.909c-.41 0-.76-.139-1.06-.417-.29-.279-.43-.613-.43-1.004 0-.39.14-.725.43-1.003.3-.278.65-.417 1.06-.417s.76.139 1.05.417.44.613.44 1.003c0 .391-.15.725-.44 1.004-.29.278-.64.417-1.05.417zm10.58 16.193c-1.31 0-2.44-.29-3.4-.87-.94-.586-1.67-1.403-2.19-2.45-.51-1.054-.76-2.279-.76-3.676 0-1.396.25-2.627.76-3.693.52-1.071 1.23-1.906 2.15-2.503.92-.604 2-.906 3.23-.906.71 0 1.41.118 2.1.355.7.237 1.33.622 1.9 1.154.56.527 1.02 1.225 1.35 2.095.34.871.51 1.942.51 3.214v.888h-10.51v-1.811h8.38c0-.769-.15-1.456-.46-2.06-.3-.603-.74-1.08-1.3-1.429s-1.21-.524-1.97-.524c-.83 0-1.56.207-2.17.622-.6.408-1.06.941-1.39 1.598s-.49 1.361-.49 2.113v1.207c0 1.03.18 1.903.53 2.619.37.71.87 1.252 1.51 1.625.63.367 1.38.55 2.22.55.55 0 1.05-.077 1.49-.231.45-.16.84-.396 1.17-.71.32-.32.57-.716.75-1.19l2.03.568c-.22.687-.57 1.291-1.08 1.812-.5.514-1.12.917-1.86 1.207-.74.284-1.57.426-2.5.426zm11.93-.284-4.16-13.636h2.2l2.95 10.44h.14l2.91-10.44h2.24l2.88 10.404h.14l2.95-10.404h2.2l-4.16 13.636h-2.05l-2.99-10.476h-.21l-2.98 10.476zm-176.588 28v-18.182h6.143c1.427 0 2.593.258 3.498.773.911.509 1.586 1.198 2.024 2.068s.657 1.841.657 2.912-.219 2.045-.657 2.921c-.432.876-1.101 1.574-2.006 2.095-.906.515-2.066.772-3.48.772h-4.404v-1.953h4.333c.976 0 1.76-.168 2.352-.506.592-.337 1.021-.793 1.288-1.367.272-.58.408-1.234.408-1.962s-.136-1.379-.408-1.953c-.267-.574-.699-1.024-1.297-1.35-.597-.331-1.39-.497-2.379-.497h-3.871v16.229zm15.585 0v-13.636h2.024v2.059h.142c.249-.674.698-1.222 1.349-1.642s1.385-.63 2.202-.63c.154 0 .346.003.577.008.231.006.406.015.524.027v2.131c-.071-.018-.234-.045-.488-.08-.249-.042-.512-.062-.79-.062-.663 0-1.255.139-1.776.417-.515.272-.923.651-1.225 1.136-.296.48-.444 1.027-.444 1.643v8.629zm14.426.284c-1.231 0-2.311-.293-3.24-.879-.923-.586-1.646-1.405-2.166-2.459-.515-1.053-.773-2.285-.773-3.693 0-1.421.258-2.661.773-3.72.52-1.059 1.243-1.882 2.166-2.468.929-.586 2.009-.879 3.24-.879s2.308.293 3.232.879c.929.586 1.651 1.409 2.166 2.468.521 1.059.781 2.299.781 3.72 0 1.408-.26 2.64-.781 3.693-.515 1.054-1.237 1.873-2.166 2.459-.924.586-2.001.879-3.232.879zm0-1.882c.935 0 1.705-.24 2.308-.719.604-.48 1.051-1.11 1.341-1.891s.435-1.628.435-2.539c0-.912-.145-1.761-.435-2.548s-.737-1.424-1.341-1.909c-.603-.485-1.373-.728-2.308-.728s-1.704.243-2.308.728-1.051 1.122-1.341 1.909-.435 1.636-.435 2.548c0 .911.145 1.758.435 2.539s.737 1.411 1.341 1.891c.604.479 1.373.719 2.308.719zm14.917 1.882c-1.28 0-2.379-.302-3.302-.905-.924-.604-1.634-1.436-2.131-2.495-.497-1.06-.746-2.27-.746-3.631 0-1.385.255-2.607.764-3.667.515-1.065 1.231-1.897 2.148-2.494.923-.604 1.997-.906 3.227-.906.96 0 1.83.178 2.6.533s1.4.852 1.89 1.491.79 1.385.91 2.237h-2.09c-.16-.621-.52-1.171-1.07-1.651-.54-.485-1.28-.728-2.2-.728-.82 0-1.53.213-2.148.639-.61.421-1.086 1.015-1.43 1.785-.337.763-.506 1.66-.506 2.69 0 1.053.166 1.971.498 2.752.337.781.81 1.388 1.42 1.82.616.432 1.336.648 2.166.648.54 0 1.04-.095 1.48-.284.45-.189.82-.462 1.13-.817s.53-.781.66-1.278h2.09c-.12.805-.41 1.53-.88 2.175-.46.639-1.07 1.148-1.83 1.527-.76.373-1.64.559-2.65.559zm14.14 0c-1.31 0-2.44-.29-3.4-.87-.94-.586-1.68-1.403-2.19-2.45-.51-1.054-.76-2.279-.76-3.676 0-1.396.25-2.627.76-3.693.51-1.071 1.23-1.906 2.15-2.503.92-.604 2-.906 3.23-.906.71 0 1.41.118 2.1.355.7.237 1.33.622 1.89 1.154.57.527 1.03 1.225 1.36 2.095.34.871.51 1.942.51 3.214v.888h-10.51v-1.811h8.38c0-.769-.16-1.456-.46-2.06-.31-.603-.74-1.08-1.3-1.429s-1.21-.524-1.97-.524c-.83 0-1.56.207-2.17.622-.6.408-1.06.941-1.39 1.598s-.49 1.361-.49 2.113v1.207c0 1.03.18 1.903.53 2.619.36.71.87 1.252 1.5 1.625.64.367 1.39.55 2.23.55.55 0 1.05-.077 1.49-.231.45-.16.84-.396 1.17-.71.32-.32.57-.716.75-1.19l2.03.568c-.22.687-.58 1.291-1.08 1.812-.5.514-1.12.917-1.86 1.207-.74.284-1.57.426-2.5.426zm18.5-10.866-1.89.532c-.12-.313-.29-.618-.52-.914-.23-.302-.53-.551-.92-.746s-.89-.293-1.5-.293c-.84 0-1.53.193-2.09.577-.55.379-.83.861-.83 1.447 0 .521.19.932.57 1.234s.97.554 1.78.755l2.02.497c1.22.296 2.13.749 2.73 1.358.59.604.89 1.382.89 2.335 0 .782-.22 1.48-.67 2.095-.44.616-1.07 1.101-1.87 1.456-.79.356-1.72.533-2.78.533-1.39 0-2.54-.302-3.46-.905-.91-.604-1.48-1.486-1.73-2.646l1.99-.497c.19.734.55 1.284 1.08 1.651s1.22.551 2.08.551c.98 0 1.75-.208 2.33-.622.58-.42.87-.923.87-1.509 0-.474-.17-.87-.5-1.19-.33-.325-.84-.568-1.53-.728l-2.27-.532c-1.25-.296-2.17-.755-2.75-1.377-.58-.627-.87-1.411-.87-2.352 0-.77.21-1.45.65-2.042.43-.592 1.03-1.057 1.78-1.394.76-.337 1.62-.506 2.58-.506 1.35 0 2.4.296 3.17.888.78.592 1.33 1.373 1.66 2.344zm13.06 0-1.89.532c-.11-.313-.29-.618-.52-.914-.22-.302-.53-.551-.92-.746s-.89-.293-1.5-.293c-.84 0-1.53.193-2.09.577-.55.379-.82.861-.82 1.447 0 .521.18.932.56 1.234s.97.554 1.78.755l2.02.497c1.22.296 2.13.749 2.73 1.358.6.604.9 1.382.9 2.335 0 .782-.23 1.48-.68 2.095-.44.616-1.06 1.101-1.86 1.456-.8.356-1.73.533-2.79.533-1.39 0-2.54-.302-3.45-.905-.92-.604-1.49-1.486-1.74-2.646l1.99-.497c.19.734.55 1.284 1.08 1.651s1.22.551 2.08.551c.98 0 1.75-.208 2.33-.622.58-.42.87-.923.87-1.509 0-.474-.17-.87-.5-1.19-.33-.325-.84-.568-1.53-.728l-2.27-.532c-1.25-.296-2.16-.755-2.75-1.377-.58-.627-.87-1.411-.87-2.352 0-.77.22-1.45.65-2.042.44-.592 1.03-1.057 1.78-1.394.76-.337 1.62-.506 2.58-.506 1.35 0 2.41.296 3.18.888s1.32 1.373 1.65 2.344zm14.02 10.582-4.97-18.182h2.23l3.8 14.808h.18l3.87-14.808h2.49l3.87 14.808h.17l3.8-14.808h2.24l-4.97 18.182h-2.27l-4.02-14.489h-.14l-4.01 14.489zm24.41.284c-1.23 0-2.31-.293-3.24-.879-.92-.586-1.64-1.405-2.17-2.459-.51-1.053-.77-2.285-.77-3.693 0-1.421.26-2.661.77-3.72.53-1.059 1.25-1.882 2.17-2.468.93-.586 2.01-.879 3.24-.879s2.31.293 3.23.879c.93.586 1.65 1.409 2.17 2.468s.78 2.299.78 3.72c0 1.408-.26 2.64-.78 3.693-.52 1.054-1.24 1.873-2.17 2.459-.92.586-2 .879-3.23.879zm0-1.882c.94 0 1.71-.24 2.31-.719.6-.48 1.05-1.11 1.34-1.891s.43-1.628.43-2.539c0-.912-.14-1.761-.43-2.548s-.74-1.424-1.34-1.909-1.37-.728-2.31-.728c-.93 0-1.7.243-2.31.728-.6.485-1.05 1.122-1.34 1.909s-.43 1.636-.43 2.548c0 .911.14 1.758.43 2.539s.74 1.411 1.34 1.891c.61.479 1.38.719 2.31.719zm9.38 1.598v-13.636h2.02v2.059h.14c.25-.674.7-1.222 1.35-1.642s1.39-.63 2.21-.63c.15 0 .34.003.57.008.23.006.41.015.53.027v2.131c-.07-.018-.24-.045-.49-.08-.25-.042-.51-.062-.79-.062-.66 0-1.26.139-1.78.417-.51.272-.92.651-1.22 1.136-.3.48-.45 1.027-.45 1.643v8.629zm14.03.284c-1.13 0-2.14-.287-3.01-.861-.87-.58-1.55-1.397-2.04-2.45-.49-1.06-.73-2.312-.73-3.756 0-1.432.24-2.675.73-3.728.49-1.054 1.18-1.868 2.05-2.442.88-.574 1.89-.861 3.04-.861.89 0 1.59.148 2.1.444.52.29.92.621 1.19.994.28.367.5.669.65.906h.18v-6.712h2.09v18.182h-2.02v-2.095h-.25c-.15.248-.37.562-.66.941-.28.373-.69.707-1.21 1.003-.53.29-1.23.435-2.11.435zm.29-1.882c.84 0 1.55-.219 2.13-.657.58-.444 1.02-1.056 1.32-1.838.3-.787.45-1.695.45-2.725 0-1.018-.14-1.909-.44-2.672-.3-.77-.73-1.368-1.31-1.794-.58-.432-1.3-.648-2.15-.648-.89 0-1.63.228-2.22.684-.59.45-1.03 1.062-1.32 1.837-.29.77-.44 1.634-.44 2.593 0 .97.15 1.852.44 2.645.31.788.75 1.415 1.34 1.883.59.461 1.32.692 2.2.692zm10.38 1.598v-18.182h6.14c1.43 0 2.59.258 3.5.773.91.509 1.58 1.198 2.02 2.068s.66 1.841.66 2.912-.22 2.045-.66 2.921c-.43.876-1.1 1.574-2 2.095-.91.515-2.07.772-3.48.772h-4.41v-1.953h4.33c.98 0 1.77-.168 2.36-.506.59-.337 1.02-.793 1.28-1.367.28-.58.41-1.234.41-1.962s-.13-1.379-.41-1.953c-.26-.574-.69-1.024-1.29-1.35-.6-.331-1.39-.497-2.38-.497h-3.87v16.229zm15.58 0v-13.636h2.03v2.059h.14c.25-.674.7-1.222 1.35-1.642s1.38-.63 2.2-.63c.15 0 .35.003.58.008.23.006.4.015.52.027v2.131c-.07-.018-.23-.045-.49-.08-.25-.042-.51-.062-.79-.062-.66 0-1.25.139-1.77.417-.52.272-.93.651-1.23 1.136-.3.48-.44 1.027-.44 1.643v8.629zm14.61.284c-1.32 0-2.45-.29-3.4-.87-.95-.586-1.68-1.403-2.2-2.45-.51-1.054-.76-2.279-.76-3.676 0-1.396.25-2.627.76-3.693.52-1.071 1.23-1.906 2.15-2.503.92-.604 2-.906 3.23-.906.71 0 1.41.118 2.11.355.69.237 1.32.622 1.89 1.154.57.527 1.02 1.225 1.36 2.095.33.871.5 1.942.5 3.214v.888h-10.51v-1.811h8.38c0-.769-.15-1.456-.46-2.06-.3-.603-.73-1.08-1.3-1.429-.55-.349-1.21-.524-1.97-.524-.83 0-1.55.207-2.16.622-.61.408-1.07.941-1.4 1.598-.32.657-.49 1.361-.49 2.113v1.207c0 1.03.18 1.903.54 2.619.36.71.86 1.252 1.5 1.625.64.367 1.38.55 2.23.55.55 0 1.04-.077 1.49-.231.45-.16.83-.396 1.16-.71.33-.32.58-.716.75-1.19l2.03.568c-.21.687-.57 1.291-1.08 1.812-.5.514-1.12.917-1.86 1.207-.74.284-1.57.426-2.49.426zm18.49-10.866-1.88.532c-.12-.313-.3-.618-.53-.914-.22-.302-.53-.551-.92-.746s-.89-.293-1.5-.293c-.84 0-1.53.193-2.09.577-.55.379-.82.861-.82 1.447 0 .521.19.932.56 1.234.38.302.98.554 1.78.755l2.02.497c1.22.296 2.13.749 2.73 1.358.6.604.9 1.382.9 2.335 0 .782-.23 1.48-.68 2.095-.44.616-1.06 1.101-1.86 1.456-.8.356-1.73.533-2.79.533-1.39 0-2.54-.302-3.45-.905-.91-.604-1.49-1.486-1.73-2.646l1.98-.497c.19.734.55 1.284 1.08 1.651s1.23.551 2.08.551c.98 0 1.76-.208 2.33-.622.58-.42.87-.923.87-1.509 0-.474-.17-.87-.5-1.19-.33-.325-.84-.568-1.52-.728l-2.28-.532c-1.25-.296-2.16-.755-2.75-1.377-.58-.627-.87-1.411-.87-2.352 0-.77.22-1.45.65-2.042.44-.592 1.03-1.057 1.78-1.394.76-.337 1.62-.506 2.58-.506 1.35 0 2.41.296 3.18.888s1.32 1.373 1.65 2.344zm13.06 0-1.88.532c-.12-.313-.3-.618-.53-.914-.22-.302-.53-.551-.92-.746s-.89-.293-1.5-.293c-.83 0-1.53.193-2.09.577-.55.379-.82.861-.82 1.447 0 .521.19.932.57 1.234s.97.554 1.77.755l2.03.497c1.22.296 2.12.749 2.72 1.358.6.604.9 1.382.9 2.335 0 .782-.23 1.48-.68 2.095-.44.616-1.06 1.101-1.86 1.456-.8.356-1.73.533-2.79.533-1.39 0-2.54-.302-3.45-.905-.91-.604-1.49-1.486-1.73-2.646l1.99-.497c.18.734.54 1.284 1.07 1.651s1.23.551 2.09.551c.97 0 1.75-.208 2.32-.622.58-.42.87-.923.87-1.509 0-.474-.16-.87-.5-1.19-.33-.325-.84-.568-1.52-.728l-2.27-.532c-1.25-.296-2.17-.755-2.76-1.377-.58-.627-.87-1.411-.87-2.352 0-.77.22-1.45.65-2.042.44-.592 1.03-1.057 1.79-1.394.75-.337 1.61-.506 2.57-.506 1.35 0 2.41.296 3.18.888s1.32 1.373 1.65 2.344zm4.93 10.724c-.44 0-.81-.157-1.13-.47-.31-.314-.47-.69-.47-1.128s.16-.814.47-1.127c.32-.314.69-.471 1.13-.471s.81.157 1.13.471c.31.313.47.689.47 1.127 0 .29-.08.556-.22.799-.15.243-.34.438-.58.586-.24.142-.51.213-.8.213zm10.9.142c-1.23 0-2.31-.293-3.24-.879s-1.65-1.405-2.17-2.459c-.51-1.053-.77-2.285-.77-3.693 0-1.421.26-2.661.77-3.72.52-1.059 1.24-1.882 2.17-2.468s2.01-.879 3.24-.879 2.3.293 3.23.879 1.65 1.409 2.16 2.468c.53 1.059.79 2.299.79 3.72 0 1.408-.26 2.64-.79 3.693-.51 1.054-1.23 1.873-2.16 2.459s-2 .879-3.23.879zm0-1.882c.93 0 1.7-.24 2.3-.719.61-.48 1.06-1.11 1.35-1.891s.43-1.628.43-2.539c0-.912-.14-1.761-.43-2.548s-.74-1.424-1.35-1.909c-.6-.485-1.37-.728-2.3-.728-.94 0-1.71.243-2.31.728-.61.485-1.05 1.122-1.34 1.909s-.44 1.636-.44 2.548c0 .911.15 1.758.44 2.539s.73 1.411 1.34 1.891c.6.479 1.37.719 2.31.719zm9.37 1.598v-13.636h2.03v2.059h.14c.25-.674.7-1.222 1.35-1.642s1.38-.63 2.2-.63c.16 0 .35.003.58.008.23.006.4.015.52.027v2.131c-.07-.018-.23-.045-.49-.08-.24-.042-.51-.062-.79-.062-.66 0-1.25.139-1.77.417-.52.272-.93.651-1.23 1.136-.29.48-.44 1.027-.44 1.643v8.629zm14.39 5.398c-1.01 0-1.88-.13-2.61-.391-.72-.254-1.33-.592-1.82-1.012-.47-.414-.86-.858-1.14-1.332l1.67-1.172c.19.249.43.533.72.853.29.325.68.606 1.19.843.51.243 1.17.364 1.99.364 1.11 0 2.01-.266 2.73-.799s1.07-1.367 1.07-2.503v-2.77h-.17c-.16.248-.38.556-.66.923-.28.361-.68.684-1.21.968-.52.278-1.22.417-2.11.417-1.1 0-2.09-.26-2.97-.781-.87-.521-1.56-1.279-2.06-2.273-.51-.994-.76-2.202-.76-3.622 0-1.397.25-2.613.74-3.649.49-1.042 1.17-1.847 2.05-2.415.87-.574 1.89-.861 3.04-.861.88 0 1.59.148 2.11.444.52.29.93.621 1.21.994.28.367.5.669.65.906h.22v-2.166h2.02v14.027c0 1.171-.27 2.124-.8 2.858-.53.74-1.24 1.282-2.13 1.625-.89.349-1.88.524-2.97.524zm-.07-7.493c.84 0 1.55-.193 2.13-.577.58-.385 1.03-.938 1.33-1.66s.45-1.587.45-2.593c0-.982-.15-1.849-.44-2.601-.3-.752-.74-1.34-1.32-1.767-.58-.426-1.29-.639-2.15-.639-.88 0-1.62.225-2.22.675-.58.45-1.02 1.053-1.32 1.811-.29.758-.43 1.598-.43 2.521 0 .947.14 1.785.44 2.513.3.722.75 1.29 1.33 1.704.59.409 1.33.613 2.2.613z" fill="#3858e9"/><path d="m881.121 306c-15.716 0-28.501 12.784-28.501 28.499 0 15.716 12.785 28.501 28.5 28.501 15.714 0 28.498-12.785 28.498-28.501.001-15.714-12.783-28.499-28.497-28.499zm-25.625 28.499c0-3.714.797-7.242 2.219-10.428l12.223 33.49c-8.547-4.155-14.442-12.92-14.442-23.062zm25.625 25.626c-2.516 0-4.943-.369-7.239-1.045l7.688-22.339 7.877 21.578c.051.127.114.243.183.353-2.664.937-5.525 1.453-8.509 1.453zm3.53-37.64c1.542-.081 2.934-.244 2.934-.244 1.38-.163 1.218-2.192-.164-2.111 0 0-4.15.326-6.83.326-2.518 0-6.75-.326-6.75-.326-1.381-.081-1.542 2.03-.162 2.111 0 0 1.308.163 2.688.244l3.991 10.939-5.607 16.817-9.33-27.755c1.545-.081 2.933-.244 2.933-.244 1.38-.163 1.217-2.193-.164-2.11 0 0-4.149.325-6.829.325-.482 0-1.048-.012-1.649-.031 4.581-6.957 12.457-11.55 21.409-11.55 6.672 0 12.745 2.55 17.303 6.726-.111-.005-.218-.02-.333-.02-2.516 0-4.302 2.192-4.302 4.548 0 2.111 1.217 3.898 2.516 6.009.975 1.707 2.112 3.9 2.112 7.067 0 2.194-.842 4.738-1.95 8.283l-2.556 8.541zm9.351 34.164 7.827-22.63c1.463-3.655 1.948-6.578 1.948-9.178 0-.943-.061-1.819-.173-2.635 2.002 3.65 3.141 7.839 3.14 12.294-.001 9.453-5.125 17.706-12.742 22.149z" fill="#fff"/><rect fill="#fff" height="105" rx="19" width="351" x="69" y="282"/><rect fill="#a9b7ef" height="80" rx="15" width="82" x="86" y="294"/><path d="m203.947 331h-2.308l6.676-18.182h2.273l6.676 18.182h-2.308l-5.433-15.305h-.142zm.853-7.102h9.304v1.953h-9.304zm23.606 1.527v-8.061h2.095v13.636h-2.095v-2.308h-.142c-.32.692-.817 1.281-1.492 1.766-.674.48-1.527.72-2.556.72-.853 0-1.61-.187-2.273-.56-.663-.379-1.184-.947-1.563-1.704-.378-.764-.568-1.726-.568-2.886v-8.664h2.095v8.522c0 .995.278 1.788.835 2.38.562.591 1.278.887 2.148.887.521 0 1.051-.133 1.589-.399.545-.266 1.001-.675 1.368-1.225.372-.551.559-1.252.559-2.104zm11.863-8.061v1.775h-7.067v-1.775zm-5.007-3.267h2.095v12.997c0 .592.086 1.035.257 1.331.178.29.403.486.675.586.278.095.571.142.879.142.231 0 .42-.011.568-.035.148-.03.267-.053.355-.071l.426 1.882c-.142.053-.34.107-.594.16-.255.059-.577.089-.968.089-.592 0-1.172-.128-1.74-.382-.562-.255-1.03-.642-1.403-1.163-.367-.521-.55-1.178-.55-1.971zm13.552 17.187c-1.231 0-2.311-.293-3.241-.879-.923-.586-1.645-1.405-2.166-2.459-.515-1.053-.772-2.285-.772-3.693 0-1.421.257-2.661.772-3.72.521-1.059 1.243-1.882 2.166-2.468.93-.586 2.01-.879 3.241-.879s2.308.293 3.231.879c.93.586 1.652 1.409 2.167 2.468.52 1.059.781 2.299.781 3.72 0 1.408-.261 2.64-.781 3.693-.515 1.054-1.237 1.873-2.167 2.459-.923.586-2 .879-3.231.879zm0-1.882c.935 0 1.704-.24 2.308-.719.604-.48 1.051-1.11 1.341-1.891s.435-1.628.435-2.539c0-.912-.145-1.761-.435-2.548s-.737-1.424-1.341-1.909-1.373-.728-2.308-.728-1.705.243-2.308.728c-.604.485-1.051 1.122-1.341 1.909s-.435 1.636-.435 2.548c0 .911.145 1.758.435 2.539s.737 1.411 1.341 1.891c.603.479 1.373.719 2.308.719zm9.377 1.598v-13.636h2.024v2.13h.178c.284-.728.743-1.293 1.376-1.695.633-.409 1.394-.613 2.281-.613.9 0 1.649.204 2.247.613.603.402 1.074.967 1.411 1.695h.142c.349-.704.873-1.263 1.572-1.678.698-.42 1.535-.63 2.512-.63 1.219 0 2.216.382 2.992 1.145.775.758 1.163 1.939 1.163 3.543v9.126h-2.095v-9.126c0-1.007-.276-1.726-.826-2.158s-1.199-.648-1.944-.648c-.959 0-1.702.29-2.229.87-.526.574-.79 1.302-.79 2.184v8.878h-2.13v-9.339c0-.776-.252-1.4-.755-1.874-.503-.479-1.151-.719-1.944-.719-.545 0-1.054.145-1.527.435-.468.29-.847.693-1.137 1.208-.284.509-.426 1.097-.426 1.766v8.523zm25.741.32c-.864 0-1.648-.163-2.352-.489-.705-.331-1.264-.808-1.678-1.429-.414-.627-.622-1.385-.622-2.273 0-.781.154-1.414.462-1.9.308-.491.719-.876 1.234-1.154s1.083-.485 1.705-.621c.627-.142 1.257-.255 1.891-.338.828-.106 1.5-.186 2.015-.239.521-.059.899-.157 1.136-.293.243-.136.364-.373.364-.71v-.071c0-.876-.24-1.557-.719-2.042-.473-.486-1.193-.728-2.157-.728-1 0-1.785.219-2.353.657s-.968.905-1.198 1.402l-1.989-.71c.355-.828.829-1.474 1.42-1.935.598-.468 1.249-.793 1.954-.977.71-.189 1.408-.284 2.095-.284.438 0 .941.053 1.509.16.574.1 1.127.311 1.66.63.539.32.986.802 1.341 1.447s.532 1.51.532 2.593v8.984h-2.095v-1.847h-.106c-.142.296-.379.613-.711.95-.331.338-.772.625-1.322.861-.551.237-1.223.356-2.016.356zm.32-1.882c.829 0 1.527-.163 2.095-.489.574-.325 1.006-.746 1.296-1.26.296-.515.444-1.057.444-1.625v-1.918c-.089.107-.284.204-.586.293-.296.083-.639.157-1.03.222-.384.059-.76.113-1.127.16-.361.041-.654.077-.879.107-.544.071-1.053.186-1.527.346-.468.154-.846.387-1.136.701-.284.308-.426.728-.426 1.261 0 .728.269 1.278.807 1.651.545.367 1.234.551 2.069.551zm15.685-12.074v1.775h-7.067v-1.775zm-5.007-3.267h2.095v12.997c0 .592.086 1.035.257 1.331.178.29.403.486.675.586.278.095.571.142.879.142.231 0 .42-.011.568-.035.148-.03.267-.053.355-.071l.426 1.882c-.142.053-.34.107-.594.16-.255.059-.577.089-.968.089-.592 0-1.172-.128-1.74-.382-.562-.255-1.03-.642-1.403-1.163-.367-.521-.55-1.178-.55-1.971zm13.729 17.187c-1.314 0-2.447-.29-3.4-.87-.947-.586-1.678-1.403-2.193-2.45-.509-1.054-.763-2.279-.763-3.676 0-1.396.254-2.627.763-3.693.515-1.071 1.231-1.906 2.149-2.503.923-.604 2-.906 3.231-.906.711 0 1.412.118 2.104.355.693.237 1.323.622 1.891 1.154.568.527 1.021 1.225 1.359 2.095.337.871.506 1.942.506 3.214v.888h-10.512v-1.811h8.381c0-.769-.154-1.456-.462-2.06-.302-.603-.734-1.08-1.296-1.429-.556-.349-1.213-.524-1.971-.524-.834 0-1.556.207-2.166.622-.604.408-1.068.941-1.394 1.598-.325.657-.488 1.361-.488 2.113v1.207c0 1.03.178 1.903.533 2.619.361.71.861 1.252 1.5 1.625.639.367 1.382.55 2.228.55.551 0 1.048-.077 1.492-.231.45-.16.837-.396 1.163-.71.325-.32.577-.716.754-1.19l2.025.568c-.213.687-.572 1.291-1.075 1.812-.503.514-1.124.917-1.864 1.207-.74.284-1.571.426-2.495.426zm13.983 0c-1.136 0-2.14-.287-3.01-.861-.87-.58-1.55-1.397-2.042-2.45-.491-1.06-.736-2.312-.736-3.756 0-1.432.245-2.675.736-3.728.492-1.054 1.175-1.868 2.051-2.442s1.888-.861 3.036-.861c.888 0 1.59.148 2.105.444.52.29.917.621 1.189.994.278.367.494.669.648.906h.178v-6.712h2.095v18.182h-2.024v-2.095h-.249c-.154.248-.373.562-.657.941-.284.373-.689.707-1.216 1.003-.527.29-1.228.435-2.104.435zm.284-1.882c.84 0 1.551-.219 2.131-.657.58-.444 1.021-1.056 1.323-1.838.301-.787.452-1.695.452-2.725 0-1.018-.148-1.909-.444-2.672-.296-.77-.733-1.368-1.314-1.794-.58-.432-1.296-.648-2.148-.648-.888 0-1.628.228-2.219.684-.586.45-1.027 1.062-1.323 1.837-.29.77-.435 1.634-.435 2.593 0 .97.148 1.852.444 2.645.302.788.745 1.415 1.331 1.883.592.461 1.326.692 2.202.692zm-114.469 29.882c-1.278 0-2.379-.302-3.302-.905-.923-.604-1.634-1.436-2.131-2.495-.497-1.06-.746-2.27-.746-3.631 0-1.385.255-2.607.764-3.667.515-1.065 1.231-1.897 2.148-2.494.924-.604 2.001-.906 3.232-.906.959 0 1.823.178 2.592.533.77.355 1.4.852 1.891 1.491s.796 1.385.915 2.237h-2.096c-.159-.621-.514-1.171-1.065-1.651-.544-.485-1.278-.728-2.202-.728-.816 0-1.533.213-2.148.639-.61.421-1.086 1.015-1.429 1.785-.338.763-.506 1.66-.506 2.69 0 1.053.165 1.971.497 2.752.337.781.811 1.388 1.42 1.82.616.432 1.338.648 2.166.648.545 0 1.039-.095 1.483-.284s.82-.462 1.127-.817c.308-.355.527-.781.657-1.278h2.096c-.119.805-.412 1.53-.879 2.175-.462.639-1.075 1.148-1.838 1.527-.758.373-1.639.559-2.646.559zm13.965 0c-1.231 0-2.311-.293-3.24-.879-.923-.586-1.646-1.405-2.166-2.459-.515-1.053-.773-2.285-.773-3.693 0-1.421.258-2.661.773-3.72.52-1.059 1.243-1.882 2.166-2.468.929-.586 2.009-.879 3.24-.879s2.308.293 3.232.879c.929.586 1.651 1.409 2.166 2.468.521 1.059.781 2.299.781 3.72 0 1.408-.26 2.64-.781 3.693-.515 1.054-1.237 1.873-2.166 2.459-.924.586-2.001.879-3.232.879zm0-1.882c.935 0 1.705-.24 2.308-.719.604-.48 1.051-1.11 1.341-1.891s.435-1.628.435-2.539c0-.912-.145-1.761-.435-2.548s-.737-1.424-1.341-1.909c-.603-.485-1.373-.728-2.308-.728s-1.704.243-2.308.728-1.051 1.122-1.341 1.909-.435 1.636-.435 2.548c0 .911.145 1.758.435 2.539s.737 1.411 1.341 1.891c.604.479 1.373.719 2.308.719zm14.527 1.882c-1.137 0-2.14-.287-3.01-.861-.87-.58-1.551-1.397-2.042-2.45-.491-1.06-.737-2.312-.737-3.756 0-1.432.246-2.675.737-3.728.491-1.054 1.175-1.868 2.051-2.442s1.888-.861 3.036-.861c.888 0 1.589.148 2.104.444.521.29.918.621 1.19.994.278.367.494.669.648.906h.177v-6.712h2.096v18.182h-2.025v-2.095h-.248c-.154.248-.373.562-.657.941-.284.373-.69.707-1.216 1.003-.527.29-1.228.435-2.104.435zm.284-1.882c.84 0 1.55-.219 2.13-.657.58-.444 1.021-1.056 1.323-1.838.302-.787.453-1.695.453-2.725 0-1.018-.148-1.909-.444-2.672-.296-.77-.734-1.368-1.314-1.794-.58-.432-1.296-.648-2.148-.648-.888 0-1.628.228-2.22.684-.586.45-1.027 1.062-1.323 1.837-.29.77-.435 1.634-.435 2.593 0 .97.148 1.852.444 2.645.302.788.746 1.415 1.332 1.883.592.461 1.326.692 2.202.692zm15.811 1.882c-1.314 0-2.447-.29-3.4-.87-.947-.586-1.678-1.403-2.193-2.45-.509-1.054-.763-2.279-.763-3.676 0-1.396.254-2.627.763-3.693.515-1.071 1.231-1.906 2.149-2.503.923-.604 2-.906 3.231-.906.71 0 1.412.118 2.104.355.693.237 1.323.622 1.891 1.154.568.527 1.021 1.225 1.358 2.095.338.871.506 1.942.506 3.214v.888h-10.511v-1.811h8.381c0-.769-.154-1.456-.462-2.06-.302-.603-.734-1.08-1.296-1.429-.556-.349-1.213-.524-1.971-.524-.834 0-1.557.207-2.166.622-.604.408-1.068.941-1.394 1.598-.325.657-.488 1.361-.488 2.113v1.207c0 1.03.177 1.903.532 2.619.361.71.862 1.252 1.501 1.625.639.367 1.382.55 2.228.55.551 0 1.048-.077 1.492-.231.449-.16.837-.396 1.163-.71.325-.32.577-.716.754-1.19l2.024.568c-.213.687-.571 1.291-1.074 1.812-.503.514-1.124.917-1.864 1.207-.74.284-1.572.426-2.495.426zm15.865-.284v-13.636h2.024v2.059h.142c.249-.674.698-1.222 1.349-1.642s1.385-.63 2.202-.63c.154 0 .346.003.577.008.231.006.406.015.524.027v2.131c-.071-.018-.234-.045-.488-.08-.249-.042-.512-.062-.79-.062-.663 0-1.255.139-1.776.417-.515.272-.923.651-1.225 1.136-.296.48-.444 1.027-.444 1.643v8.629zm14.604.284c-1.314 0-2.447-.29-3.4-.87-.947-.586-1.678-1.403-2.193-2.45-.509-1.054-.764-2.279-.764-3.676 0-1.396.255-2.627.764-3.693.515-1.071 1.231-1.906 2.148-2.503.924-.604 2.001-.906 3.232-.906.71 0 1.411.118 2.104.355.692.237 1.323.622 1.891 1.154.568.527 1.021 1.225 1.358 2.095.338.871.506 1.942.506 3.214v.888h-10.511v-1.811h8.38c0-.769-.153-1.456-.461-2.06-.302-.603-.734-1.08-1.296-1.429-.557-.349-1.214-.524-1.971-.524-.835 0-1.557.207-2.166.622-.604.408-1.069.941-1.394 1.598-.326.657-.488 1.361-.488 2.113v1.207c0 1.03.177 1.903.532 2.619.361.71.861 1.252 1.501 1.625.639.367 1.382.55 2.228.55.55 0 1.047-.077 1.491-.231.45-.16.838-.396 1.163-.71.326-.32.577-.716.755-1.19l2.024.568c-.213.687-.571 1.291-1.074 1.812-.503.514-1.125.917-1.864 1.207-.74.284-1.572.426-2.495.426zm19.569-13.92-5.043 13.636h-2.13l-5.043-13.636h2.273l3.764 10.866h.142l3.764-10.866zm2.765 13.636v-13.636h2.095v13.636zm1.066-15.909c-.409 0-.761-.139-1.057-.417-.29-.279-.435-.613-.435-1.004 0-.39.145-.725.435-1.003.296-.278.648-.417 1.057-.417.408 0 .757.139 1.047.417.296.278.444.613.444 1.003 0 .391-.148.725-.444 1.004-.29.278-.639.417-1.047.417zm10.584 16.193c-1.314 0-2.447-.29-3.4-.87-.947-.586-1.678-1.403-2.193-2.45-.509-1.054-.763-2.279-.763-3.676 0-1.396.254-2.627.763-3.693.515-1.071 1.231-1.906 2.149-2.503.923-.604 2-.906 3.231-.906.71 0 1.412.118 2.104.355.693.237 1.323.622 1.891 1.154.568.527 1.021 1.225 1.359 2.095.337.871.506 1.942.506 3.214v.888h-10.512v-1.811h8.381c0-.769-.154-1.456-.462-2.06-.302-.603-.734-1.08-1.296-1.429-.556-.349-1.213-.524-1.971-.524-.834 0-1.556.207-2.166.622-.604.408-1.068.941-1.394 1.598-.325.657-.488 1.361-.488 2.113v1.207c0 1.03.177 1.903.533 2.619.361.71.861 1.252 1.5 1.625.639.367 1.382.55 2.228.55.551 0 1.048-.077 1.492-.231.45-.16.837-.396 1.163-.71.325-.32.577-.716.754-1.19l2.024.568c-.213.687-.571 1.291-1.074 1.812-.503.514-1.124.917-1.864 1.207-.74.284-1.571.426-2.495.426zm11.923-.284-4.155-13.636h2.202l2.948 10.44h.142l2.911-10.44h2.238l2.876 10.404h.142l2.948-10.404h2.201l-4.155 13.636h-2.059l-2.983-10.476h-.213l-2.983 10.476z" fill="#3858e9"/><path d="m156.659 329.798c-.05-.475-.294-.908-.675-1.197l-4.647-3.52 1.691-5.579c.138-.457.081-.952-.157-1.365-.239-.414-.639-.71-1.104-.819l-5.677-1.326-.725-5.784c-.06-.474-.312-.903-.699-1.183-.386-.281-.872-.39-1.341-.299l-5.726 1.098-3.015-4.99c-.247-.409-.652-.697-1.119-.796-.468-.1-.955-.001-1.347.272l-4.784 3.332-4.784-3.332c-.392-.273-.879-.371-1.346-.272-.468.099-.873.387-1.12.796l-3.015 4.99-5.726-1.098c-.469-.09-.954.018-1.341.299-.386.281-.639.709-.698 1.183l-.725 5.785-5.678 1.325c-.465.109-.864.405-1.103.819s-.296.908-.157 1.365l1.69 5.579-4.6466 3.52c-.3808.289-.6251.722-.6749 1.197-.05.475.0989.949.4115 1.311l3.814 4.409-2.8141 5.106c-.2306.418-.2776.914-.13 1.368.1477.454.4767.827.9091 1.03l5.277 2.477-.493 5.809c-.041.476.118.947.437 1.302.32.355.772.562 1.25.572l5.829.116 1.911 5.508c.157.451.493.817.93 1.011.436.195.933.2 1.374.014l5.372-2.264 3.987 4.254c.326.348.783.546 1.26.546.478 0 .934-.198 1.261-.546l3.987-4.254 5.372 2.264c.44.185.937.181 1.374-.014.436-.194.772-.56.929-1.011l1.912-5.508 5.829-.116c.477-.01.929-.217 1.249-.572s.478-.826.438-1.302l-.494-5.809 5.278-2.477c.432-.203.761-.576.909-1.03.147-.454.1-.95-.13-1.368l-2.814-5.106 3.814-4.409c.312-.361.461-.836.411-1.311zm-29.325 19.918c-9.116 0-16.532-7.417-16.532-16.533s7.416-16.532 16.532-16.532 16.533 7.417 16.533 16.532c0 9.116-7.417 16.533-16.533 16.533z" fill="#fff"/><path d="m127.334 320.106c-7.21 0-13.077 5.867-13.077 13.077 0 7.211 5.867 13.077 13.077 13.077 7.211 0 13.077-5.866 13.077-13.077 0-7.21-5.866-13.077-13.077-13.077zm6.774 10.598-7.403 7.402c-.337.337-.779.506-1.221.506s-.885-.169-1.222-.506l-3.701-3.701c-.675-.675-.675-1.769 0-2.443.674-.675 1.768-.675 2.443 0l2.48 2.479 6.18-6.18c.675-.675 1.769-.675 2.444 0 .674.674.674 1.768 0 2.443z" fill="#fff"/><rect fill="#fff" height="105" rx="19" width="315" x="468" y="282"/><rect fill="#a9b7ef" height="80" rx="15" width="82" x="485" y="294"/><path d="m602.202 333v-18.182h6.356c1.267 0 2.311.219 3.134.657.823.432 1.435 1.015 1.838 1.749.402.728.604 1.536.604 2.424 0 .781-.14 1.426-.418 1.935-.272.509-.633.912-1.083 1.207-.444.296-.926.515-1.447.657v.178c.556.036 1.116.231 1.678.586s1.033.864 1.412 1.527c.378.663.568 1.474.568 2.432 0 .912-.207 1.732-.622 2.46-.414.728-1.068 1.305-1.962 1.731-.893.426-2.056.639-3.489.639zm2.201-1.953h4.368c1.439 0 2.459-.278 3.063-.835.61-.562.915-1.243.915-2.042 0-.615-.157-1.183-.471-1.704-.314-.527-.76-.947-1.34-1.261-.581-.319-1.267-.479-2.06-.479h-4.475zm0-8.239h4.084c.663 0 1.261-.13 1.794-.39.538-.261.964-.628 1.278-1.101.32-.474.479-1.03.479-1.669 0-.799-.278-1.477-.834-2.033-.557-.563-1.438-.844-2.646-.844h-4.155zm19.492 10.476c-1.314 0-2.448-.29-3.401-.87-.946-.586-1.677-1.403-2.192-2.45-.509-1.054-.764-2.279-.764-3.676 0-1.396.255-2.627.764-3.693.515-1.071 1.231-1.906 2.148-2.503.923-.604 2.001-.906 3.232-.906.71 0 1.411.118 2.104.355.692.237 1.322.622 1.891 1.154.568.527 1.021 1.225 1.358 2.095.337.871.506 1.942.506 3.214v.888h-10.511v-1.811h8.38c0-.769-.154-1.456-.461-2.06-.302-.603-.734-1.08-1.296-1.429-.557-.349-1.214-.524-1.971-.524-.835 0-1.557.207-2.167.622-.603.408-1.068.941-1.393 1.598-.326.657-.489 1.361-.489 2.113v1.207c0 1.03.178 1.903.533 2.619.361.71.861 1.252 1.5 1.625.64.367 1.382.55 2.229.55.55 0 1.047-.077 1.491-.231.45-.16.838-.396 1.163-.71.326-.32.577-.716.755-1.19l2.024.568c-.213.687-.571 1.291-1.074 1.812-.503.514-1.125.917-1.865 1.207-.739.284-1.571.426-2.494.426zm18.492-10.866-1.882.532c-.118-.313-.293-.618-.524-.914-.225-.302-.532-.551-.923-.746s-.891-.293-1.5-.293c-.835 0-1.53.193-2.087.577-.55.379-.825.861-.825 1.447 0 .521.189.932.568 1.234s.971.554 1.776.755l2.024.497c1.219.296 2.127.749 2.725 1.358.598.604.897 1.382.897 2.335 0 .782-.225 1.48-.675 2.095-.444.616-1.065 1.101-1.864 1.456-.799.356-1.728.533-2.788.533-1.391 0-2.542-.302-3.453-.905-.912-.604-1.489-1.486-1.732-2.646l1.989-.497c.189.734.548 1.284 1.074 1.651.533.367 1.228.551 2.087.551.976 0 1.752-.208 2.326-.622.58-.42.87-.923.87-1.509 0-.474-.166-.87-.498-1.19-.331-.325-.84-.568-1.527-.728l-2.272-.532c-1.249-.296-2.166-.755-2.752-1.377-.58-.627-.87-1.411-.87-2.352 0-.77.216-1.45.648-2.042.438-.592 1.032-1.057 1.784-1.394.758-.337 1.616-.506 2.575-.506 1.349 0 2.409.296 3.178.888.775.592 1.326 1.373 1.651 2.344zm9.333-3.054v1.775h-7.067v-1.775zm-5.007-3.267h2.095v12.997c0 .592.086 1.035.258 1.331.177.29.402.486.674.586.278.095.571.142.879.142.231 0 .42-.011.568-.035.148-.03.267-.053.356-.071l.426 1.882c-.142.053-.341.107-.595.16-.255.059-.577.089-.968.089-.592 0-1.172-.128-1.74-.382-.562-.255-1.03-.642-1.403-1.163-.367-.521-.55-1.178-.55-1.971zm-44.511 44.903v-18.182h6.143c1.427 0 2.593.258 3.498.773.911.509 1.586 1.198 2.024 2.068s.657 1.841.657 2.912-.219 2.045-.657 2.921c-.432.876-1.101 1.574-2.006 2.095-.906.515-2.066.772-3.48.772h-4.404v-1.953h4.333c.976 0 1.76-.168 2.352-.506.592-.337 1.021-.793 1.288-1.367.272-.58.408-1.234.408-1.962s-.136-1.379-.408-1.953c-.267-.574-.699-1.024-1.297-1.35-.597-.331-1.39-.497-2.379-.497h-3.871v16.229zm15.585 0v-13.636h2.024v2.059h.142c.249-.674.698-1.222 1.349-1.642s1.385-.63 2.202-.63c.154 0 .346.003.577.008.231.006.406.015.524.027v2.131c-.071-.018-.234-.045-.488-.08-.249-.042-.512-.062-.79-.062-.663 0-1.255.139-1.776.417-.515.272-.923.651-1.225 1.136-.296.48-.444 1.027-.444 1.643v8.629zm13.314.32c-.864 0-1.648-.163-2.352-.489-.705-.331-1.264-.808-1.678-1.429-.415-.627-.622-1.385-.622-2.273 0-.781.154-1.414.462-1.9.308-.491.719-.876 1.234-1.154s1.083-.485 1.705-.621c.627-.142 1.257-.255 1.891-.338.828-.106 1.5-.186 2.015-.239.521-.059.899-.157 1.136-.293.243-.136.364-.373.364-.71v-.071c0-.876-.24-1.557-.719-2.042-.473-.486-1.193-.728-2.157-.728-1.001 0-1.785.219-2.353.657s-.968.905-1.198 1.402l-1.989-.71c.355-.828.829-1.474 1.42-1.935.598-.468 1.249-.793 1.954-.977.71-.189 1.408-.284 2.095-.284.438 0 .941.053 1.509.16.574.1 1.127.311 1.66.63.539.32.986.802 1.341 1.447s.532 1.51.532 2.593v8.984h-2.095v-1.847h-.106c-.142.296-.379.613-.711.95-.331.338-.772.625-1.322.861-.551.237-1.223.356-2.016.356zm.32-1.882c.828 0 1.527-.163 2.095-.489.574-.325 1.006-.746 1.296-1.26.296-.515.444-1.057.444-1.625v-1.918c-.089.107-.284.204-.586.293-.296.083-.639.157-1.03.222-.384.059-.76.113-1.127.16-.361.041-.654.077-.879.107-.545.071-1.054.186-1.527.346-.468.154-.846.387-1.136.701-.284.308-.427.728-.427 1.261 0 .728.27 1.278.808 1.651.545.367 1.234.551 2.069.551zm15.294 1.846c-1.278 0-2.379-.302-3.302-.905-.924-.604-1.634-1.436-2.131-2.495-.497-1.06-.746-2.27-.746-3.631 0-1.385.255-2.607.764-3.667.515-1.065 1.231-1.897 2.148-2.494.923-.604 2.001-.906 3.232-.906.958 0 1.823.178 2.592.533s1.4.852 1.891 1.491.796 1.385.914 2.237h-2.095c-.16-.621-.515-1.171-1.065-1.651-.545-.485-1.279-.728-2.202-.728-.817 0-1.533.213-2.148.639-.61.421-1.086 1.015-1.43 1.785-.337.763-.506 1.66-.506 2.69 0 1.053.166 1.971.498 2.752.337.781.81 1.388 1.42 1.82.616.432 1.338.648 2.166.648.545 0 1.039-.095 1.483-.284s.82-.462 1.127-.817c.308-.355.527-.781.657-1.278h2.095c-.118.805-.411 1.53-.878 2.175-.462.639-1.075 1.148-1.838 1.527-.758.373-1.64.559-2.646.559zm14.356-13.92v1.775h-7.067v-1.775zm-5.007-3.267h2.095v12.997c0 .592.086 1.035.257 1.331.178.29.403.486.675.586.278.095.571.142.879.142.231 0 .42-.011.568-.035.148-.03.266-.053.355-.071l.426 1.882c-.142.053-.34.107-.595.16-.254.059-.577.089-.967.089-.592 0-1.172-.128-1.74-.382-.563-.255-1.03-.642-1.403-1.163-.367-.521-.55-1.178-.55-1.971zm8.158 16.903v-13.636h2.095v13.636zm1.066-15.909c-.409 0-.761-.139-1.057-.417-.29-.279-.435-.613-.435-1.004 0-.39.145-.725.435-1.003.296-.278.648-.417 1.057-.417.408 0 .757.139 1.047.417.296.278.444.613.444 1.003 0 .391-.148.725-.444 1.004-.29.278-.639.417-1.047.417zm10.407 16.193c-1.279 0-2.38-.302-3.303-.905-.923-.604-1.633-1.436-2.131-2.495-.497-1.06-.745-2.27-.745-3.631 0-1.385.254-2.607.763-3.667.515-1.065 1.231-1.897 2.149-2.494.923-.604 2-.906 3.231-.906.959 0 1.823.178 2.593.533.769.355 1.399.852 1.89 1.491.492.639.797 1.385.915 2.237h-2.095c-.16-.621-.515-1.171-1.066-1.651-.544-.485-1.278-.728-2.201-.728-.817 0-1.533.213-2.149.639-.609.421-1.086 1.015-1.429 1.785-.337.763-.506 1.66-.506 2.69 0 1.053.166 1.971.497 2.752.337.781.811 1.388 1.42 1.82.616.432 1.338.648 2.167.648.544 0 1.038-.095 1.482-.284s.82-.462 1.128-.817.527-.781.657-1.278h2.095c-.118.805-.411 1.53-.879 2.175-.462.639-1.074 1.148-1.838 1.527-.757.373-1.639.559-2.645.559zm14.142 0c-1.314 0-2.447-.29-3.4-.87-.947-.586-1.678-1.403-2.193-2.45-.509-1.054-.763-2.279-.763-3.676 0-1.396.254-2.627.763-3.693.515-1.071 1.231-1.906 2.148-2.503.924-.604 2.001-.906 3.232-.906.71 0 1.412.118 2.104.355.693.237 1.323.622 1.891 1.154.568.527 1.021 1.225 1.358 2.095.338.871.506 1.942.506 3.214v.888h-10.511v-1.811h8.381c0-.769-.154-1.456-.462-2.06-.302-.603-.734-1.08-1.296-1.429-.556-.349-1.213-.524-1.971-.524-.834 0-1.557.207-2.166.622-.604.408-1.068.941-1.394 1.598s-.488 1.361-.488 2.113v1.207c0 1.03.177 1.903.532 2.619.361.71.862 1.252 1.501 1.625.639.367 1.382.55 2.228.55.551 0 1.048-.077 1.492-.231.449-.16.837-.396 1.163-.71.325-.32.577-.716.754-1.19l2.024.568c-.213.687-.571 1.291-1.074 1.812-.503.514-1.124.917-1.864 1.207-.74.284-1.572.426-2.495.426zm18.493-10.866-1.882.532c-.119-.313-.293-.618-.524-.914-.225-.302-.533-.551-.924-.746-.39-.195-.89-.293-1.5-.293-.834 0-1.53.193-2.086.577-.551.379-.826.861-.826 1.447 0 .521.19.932.568 1.234.379.302.971.554 1.776.755l2.024.497c1.219.296 2.128.749 2.726 1.358.597.604.896 1.382.896 2.335 0 .782-.225 1.48-.675 2.095-.443.616-1.065 1.101-1.864 1.456-.799.356-1.728.533-2.787.533-1.391 0-2.543-.302-3.454-.905-.911-.604-1.488-1.486-1.731-2.646l1.988-.497c.19.734.548 1.284 1.075 1.651.532.367 1.228.551 2.086.551.977 0 1.752-.208 2.326-.622.58-.42.87-.923.87-1.509 0-.474-.166-.87-.497-1.19-.332-.325-.841-.568-1.527-.728l-2.273-.532c-1.249-.296-2.166-.755-2.752-1.377-.58-.627-.87-1.411-.87-2.352 0-.77.216-1.45.648-2.042.438-.592 1.033-1.057 1.785-1.394.757-.337 1.615-.506 2.574-.506 1.35 0 2.409.296 3.178.888.776.592 1.326 1.373 1.652 2.344z" fill="#3858e9"/><path d="m526.421 312.568 6.401 12.848c.075.148.184.277.319.374.136.097.292.161.457.185l14.312 2.07c.189.026.367.104.514.227.147.122.256.283.315.464.06.182.067.376.021.562-.046.185-.143.354-.281.486l-10.352 10.003c-.12.115-.209.257-.261.415-.051.157-.063.325-.034.488l2.443 14.121c.029.188.004.38-.069.555-.074.176-.195.327-.349.439-.154.111-.336.177-.526.192s-.38-.023-.549-.11l-12.801-6.666c-.147-.078-.312-.118-.478-.118-.167 0-.331.04-.479.118l-12.806 6.656c-.169.086-.359.124-.549.11-.19-.015-.372-.082-.526-.193s-.275-.263-.349-.438c-.073-.175-.098-.368-.069-.556l2.443-14.12c.029-.163.017-.331-.034-.489-.051-.157-.141-.3-.261-.414l-10.352-10.003c-.138-.133-.235-.301-.281-.487-.046-.185-.039-.38.021-.561.059-.181.168-.343.315-.465s.325-.201.514-.226l14.312-2.071c.165-.024.321-.087.457-.184.135-.098.244-.226.319-.375l6.401-12.847c.087-.169.22-.311.383-.409.164-.099.351-.15.541-.149.191.001.377.055.539.155s.293.243.379.413z" fill="#fff"/><rect fill="#fff" height="88" rx="9" width="604" x="67" y="69"/><path d="m102.935 138v-51.9983h21.48c3.893 0 7.253.7617 10.08 2.2851 2.844 1.5064 5.036 3.6138 6.576 6.322 1.54 2.6914 2.31 5.8232 2.31 9.3942 0 3.588-.787 6.728-2.361 9.42-1.557 2.674-3.783 4.748-6.677 6.22-2.895 1.473-6.331 2.209-10.309 2.209h-13.253v-9.902h10.917c1.896 0 3.479-.33 4.748-.99 1.287-.66 2.26-1.583 2.92-2.768.66-1.201.99-2.598.99-4.189 0-1.608-.33-2.996-.99-4.1639-.66-1.1848-1.633-2.0989-2.92-2.7421-1.286-.6432-2.869-.9648-4.748-.9648h-6.195v41.8678zm46.641 0v-51.9983h12.568v41.7913h21.633v10.207zm72.165-51.9983h12.542v33.5403c0 3.876-.922 7.253-2.767 10.13-1.845 2.861-4.418 5.078-7.719 6.652-3.3 1.558-7.134 2.336-11.501 2.336-4.418 0-8.277-.778-11.578-2.336-3.301-1.574-5.865-3.791-7.693-6.652-1.828-2.877-2.742-6.254-2.742-10.13v-33.5403h12.568v32.4483c0 1.794.389 3.394 1.168 4.799.795 1.404 1.904 2.505 3.326 3.3 1.421.796 3.072 1.194 4.951 1.194 1.878 0 3.52-.398 4.925-1.194 1.422-.795 2.531-1.896 3.326-3.3.796-1.405 1.194-3.005 1.194-4.799zm54.543 16.9853c-.287-1.066-.711-2.005-1.269-2.818-.559-.8292-1.244-1.5317-2.057-2.1072-.812-.5755-1.743-1.0071-2.793-1.2948-1.049-.3047-2.2-.4571-3.453-.4571-2.522 0-4.705.6094-6.55 1.8281-1.828 1.2187-3.242 2.996-4.24 5.332-.999 2.319-1.498 5.137-1.498 8.455 0 3.334.482 6.178 1.447 8.531.965 2.352 2.361 4.147 4.189 5.382 1.828 1.236 4.046 1.854 6.652 1.854 2.302 0 4.249-.373 5.84-1.117 1.608-.762 2.827-1.837 3.656-3.225s1.244-3.021 1.244-4.9l2.336.279h-12.644v-9.166h22.419v6.881c0 4.655-.99 8.641-2.97 11.959-1.964 3.317-4.672 5.865-8.125 7.642-3.436 1.777-7.389 2.666-11.857 2.666-4.96 0-9.318-1.075-13.076-3.225-3.758-2.149-6.686-5.213-8.785-9.191-2.099-3.994-3.148-8.734-3.148-14.218 0-4.265.635-8.049 1.904-11.349 1.27-3.3178 3.038-6.1276 5.307-8.4296 2.285-2.302 4.925-4.0455 7.921-5.2303 3.013-1.1849 6.254-1.7773 9.724-1.7773 3.013 0 5.815.4316 8.404 1.2949 2.607.8632 4.909 2.0819 6.906 3.6561 2.015 1.5742 3.648 3.4445 4.901 5.6111 1.252 2.1666 2.031 4.5451 2.336 7.1341zm33.255-16.9853v51.9983h-12.568v-51.9983zm52.144 0v51.9983h-10.664l-20.693-30.011h-.33v30.011h-12.568v-51.9983h10.816l20.465 29.9603h.431v-29.9603zm70.463 18.8393h-12.695c-.169-1.303-.516-2.48-1.041-3.529-.525-1.05-1.219-1.9468-2.082-2.6916-.863-.7447-1.887-1.3118-3.072-1.7011-1.168-.4062-2.463-.6094-3.885-.6094-2.522 0-4.697.6179-6.525 1.8535-1.811 1.2356-3.208 3.0216-4.189 5.3576-.965 2.336-1.447 5.162-1.447 8.48 0 3.453.49 6.347 1.472 8.683.999 2.319 2.395 4.071 4.189 5.256 1.812 1.168 3.953 1.752 6.424 1.752 1.388 0 2.649-.178 3.783-.533 1.151-.356 2.158-.872 3.022-1.549.88-.694 1.599-1.532 2.158-2.514.575-.998.973-2.124 1.193-3.377l12.695.077c-.22 2.302-.889 4.57-2.006 6.804-1.1 2.234-2.615 4.274-4.545 6.119-1.929 1.828-4.282 3.284-7.058 4.367-2.759 1.083-5.924 1.625-9.496 1.625-4.705 0-8.92-1.033-12.644-3.098-3.707-2.082-6.635-5.111-8.785-9.089-2.149-3.978-3.224-8.819-3.224-14.523 0-5.721 1.091-10.571 3.275-14.5485 2.183-3.9777 5.137-6.9991 8.861-9.0642 3.724-2.065 7.896-3.0975 12.517-3.0975 3.149 0 6.06.4401 8.734 1.3202 2.675.8633 5.027 2.1328 7.059 3.8085 2.031 1.6588 3.681 3.6985 4.951 6.119 1.269 2.4205 2.056 5.1875 2.361 8.3025zm7.192 33.159v-51.9983h12.568v20.8703h20.489v-20.8703h12.543v51.9983h-12.543v-20.896h-20.489v20.896zm53.483 0v-51.9983h36.257v10.2067h-23.689v10.6636h21.835v10.232h-21.835v10.689h23.689v10.207zm91.327-33.159h-12.695c-.169-1.303-.516-2.48-1.041-3.529-.524-1.05-1.218-1.9468-2.082-2.6916-.863-.7447-1.887-1.3118-3.072-1.7011-1.168-.4062-2.463-.6094-3.884-.6094-2.522 0-4.697.6179-6.526 1.8535-1.811 1.2356-3.207 3.0216-4.189 5.3576-.965 2.336-1.447 5.162-1.447 8.48 0 3.453.491 6.347 1.473 8.683.998 2.319 2.395 4.071 4.189 5.256 1.811 1.168 3.952 1.752 6.423 1.752 1.388 0 2.649-.178 3.784-.533 1.151-.356 2.158-.872 3.021-1.549.88-.694 1.599-1.532 2.158-2.514.576-.998.973-2.124 1.193-3.377l12.695.077c-.22 2.302-.888 4.57-2.006 6.804-1.1 2.234-2.615 4.274-4.544 6.119-1.93 1.828-4.283 3.284-7.059 4.367-2.759 1.083-5.924 1.625-9.495 1.625-4.706 0-8.921-1.033-12.645-3.098-3.706-2.082-6.635-5.111-8.784-9.089-2.15-3.978-3.225-8.819-3.225-14.523 0-5.721 1.092-10.571 3.275-14.5485 2.184-3.9777 5.138-6.9991 8.861-9.0642 3.724-2.065 7.897-3.0975 12.518-3.0975 3.148 0 6.059.4401 8.734 1.3202 2.674.8633 5.027 2.1328 7.058 3.8085 2.031 1.6588 3.682 3.6985 4.951 6.119 1.27 2.4205 2.057 5.1875 2.361 8.3025zm7.192 33.159v-51.9983h12.568v21.9873h.685l17.189-21.9873h14.803l-18.433 23.2063 18.763 28.792h-15.031l-12.949-20.439-5.027 6.348v14.091z" fill="#3858e9"/><path d="m69.5051 182.178v-2.844h25.1359v2.844h-10.9853v31.822h-3.1653v-31.822zm32.2619 31.822v-34.666h3.165v15.894h19.669v-15.894h3.165v34.666h-3.165v-15.928h-19.669v15.928zm35.19 0v-34.666h20.109v2.844h-16.943v13.05h15.877v2.844h-15.877v13.084h17.282v2.844zm39.608-31.822v-2.844h25.136v2.844h-10.985v31.822h-3.165v-31.822zm59.239 14.489c0 3.611-.643 6.754-1.93 9.428-1.286 2.663-3.058 4.728-5.314 6.195-2.246 1.456-4.83 2.184-7.753 2.184-2.922 0-5.512-.728-7.769-2.184-2.246-1.467-4.012-3.532-5.298-6.195-1.275-2.674-1.913-5.817-1.913-9.428s.638-6.748 1.913-9.411c1.286-2.674 3.058-4.739 5.315-6.195 2.257-1.467 4.841-2.2 7.752-2.2 2.923 0 5.507.733 7.753 2.2 2.256 1.456 4.028 3.521 5.314 6.195 1.287 2.663 1.93 5.8 1.93 9.411zm-3.081 0c0-3.103-.519-5.76-1.557-7.972-1.038-2.223-2.454-3.921-4.248-5.095-1.795-1.174-3.831-1.76-6.111-1.76-2.268 0-4.299.586-6.093 1.76-1.795 1.174-3.216 2.866-4.266 5.078-1.038 2.212-1.557 4.875-1.557 7.989 0 3.103.519 5.761 1.557 7.973 1.038 2.211 2.454 3.91 4.249 5.095 1.794 1.173 3.831 1.76 6.11 1.76 2.28 0 4.316-.587 6.111-1.76 1.805-1.174 3.227-2.867 4.265-5.078 1.038-2.223 1.552-4.887 1.54-7.99zm39.156 0c0 3.611-.643 6.754-1.93 9.428-1.286 2.663-3.058 4.728-5.315 6.195-2.245 1.456-4.83 2.184-7.752 2.184-2.923 0-5.513-.728-7.769-2.184-2.246-1.467-4.012-3.532-5.298-6.195-1.276-2.674-1.913-5.817-1.913-9.428s.637-6.748 1.913-9.411c1.286-2.674 3.058-4.739 5.314-6.195 2.257-1.467 4.841-2.2 7.753-2.2 2.922 0 5.507.733 7.752 2.2 2.257 1.456 4.029 3.521 5.315 6.195 1.287 2.663 1.93 5.8 1.93 9.411zm-3.081 0c0-3.103-.519-5.76-1.557-7.972-1.038-2.223-2.454-3.921-4.249-5.095-1.794-1.174-3.831-1.76-6.11-1.76-2.268 0-4.299.586-6.094 1.76-1.794 1.174-3.216 2.866-4.265 5.078-1.038 2.212-1.557 4.875-1.557 7.989 0 3.103.519 5.761 1.557 7.973 1.038 2.211 2.454 3.91 4.248 5.095 1.795 1.173 3.831 1.76 6.111 1.76 2.279 0 4.316-.587 6.11-1.76 1.806-1.174 3.228-2.867 4.266-5.078 1.038-2.223 1.551-4.887 1.54-7.99zm10.736 17.333v-34.666h3.165v31.822h16.52v2.844zm40.217 0v-34.666h20.058v2.844h-16.893v13.05h15.319v2.844h-15.319v15.928zm56.349-17.333c0 3.611-.644 6.754-1.93 9.428-1.286 2.663-3.058 4.728-5.315 6.195-2.245 1.456-4.83 2.184-7.752 2.184-2.923 0-5.513-.728-7.77-2.184-2.245-1.467-4.011-3.532-5.298-6.195-1.275-2.674-1.912-5.817-1.912-9.428s.637-6.748 1.912-9.411c1.287-2.674 3.059-4.739 5.315-6.195 2.257-1.467 4.841-2.2 7.753-2.2 2.922 0 5.507.733 7.752 2.2 2.257 1.456 4.029 3.521 5.315 6.195 1.286 2.663 1.93 5.8 1.93 9.411zm-3.081 0c0-3.103-.519-5.76-1.557-7.972-1.038-2.223-2.455-3.921-4.249-5.095s-3.831-1.76-6.11-1.76c-2.268 0-4.3.586-6.094 1.76s-3.216 2.866-4.265 5.078c-1.038 2.212-1.558 4.875-1.558 7.989 0 3.103.52 5.761 1.558 7.973 1.038 2.211 2.454 3.91 4.248 5.095 1.794 1.173 3.831 1.76 6.111 1.76 2.279 0 4.316-.587 6.11-1.76 1.806-1.174 3.228-2.867 4.266-5.078 1.038-2.223 1.551-4.887 1.54-7.99zm10.736 17.333v-34.666h11.188c2.46 0 4.514.446 6.161 1.338 1.659.88 2.906 2.104 3.741 3.673.846 1.557 1.27 3.346 1.27 5.365 0 2.02-.424 3.803-1.27 5.349-.835 1.546-2.076 2.754-3.724 3.622-1.647.869-3.69 1.304-6.127 1.304h-9.53v-2.895h9.445c1.806 0 3.307-.299 4.503-.897 1.207-.598 2.104-1.45 2.691-2.556.598-1.105.897-2.414.897-3.927 0-1.512-.299-2.832-.897-3.96-.598-1.14-1.501-2.02-2.708-2.641-1.196-.621-2.708-.931-4.537-.931h-7.938v31.822zm15.284-15.64 8.531 15.64h-3.656l-8.446-15.64zm38.347 15.64h-10.156v-34.666h10.766c3.306 0 6.133.689 8.48 2.065 2.358 1.377 4.164 3.352 5.416 5.925 1.253 2.573 1.879 5.659 1.879 9.259 0 3.633-.643 6.753-1.929 9.36-1.276 2.595-3.137 4.587-5.586 5.975-2.438 1.388-5.394 2.082-8.87 2.082zm-6.99-2.844h6.804c2.979 0 5.473-.586 7.482-1.76 2.008-1.174 3.515-2.849 4.519-5.027s1.507-4.773 1.507-7.786c-.012-2.991-.508-5.564-1.49-7.719-.97-2.155-2.415-3.808-4.333-4.959-1.907-1.151-4.266-1.727-7.075-1.727h-7.414zm31.047 2.844v-34.666h20.109v2.844h-16.944v13.05h15.878v2.844h-15.878v13.084h17.282v2.844zm28.352-34.666 10.833 30.553h.305l10.833-30.553h3.317l-12.61 34.666h-3.385l-12.61-34.666zm31.23 34.666v-34.666h20.108v2.844h-16.943v13.05h15.877v2.844h-15.877v13.084h17.282v2.844zm28.301 0v-34.666h3.165v31.822h16.52v2.844zm53.881-17.333c0 3.611-.643 6.754-1.929 9.428-1.287 2.663-3.059 4.728-5.315 6.195-2.246 1.456-4.83 2.184-7.753 2.184-2.922 0-5.512-.728-7.769-2.184-2.246-1.467-4.012-3.532-5.298-6.195-1.275-2.674-1.913-5.817-1.913-9.428s.638-6.748 1.913-9.411c1.286-2.674 3.058-4.739 5.315-6.195 2.257-1.467 4.841-2.2 7.752-2.2 2.923 0 5.507.733 7.753 2.2 2.256 1.456 4.028 3.521 5.315 6.195 1.286 2.663 1.929 5.8 1.929 9.411zm-3.08 0c0-3.103-.52-5.76-1.558-7.972-1.038-2.223-2.454-3.921-4.248-5.095s-3.831-1.76-6.111-1.76c-2.268 0-4.299.586-6.093 1.76-1.795 1.174-3.216 2.866-4.266 5.078-1.038 2.212-1.557 4.875-1.557 7.989 0 3.103.519 5.761 1.557 7.973 1.038 2.211 2.455 3.91 4.249 5.095 1.794 1.173 3.831 1.76 6.11 1.76 2.28 0 4.317-.587 6.111-1.76 1.805-1.174 3.227-2.867 4.265-5.078 1.038-2.223 1.552-4.887 1.541-7.99zm10.735 17.333v-34.666h11.189c2.46 0 4.513.474 6.161 1.422 1.659.937 2.906 2.212 3.741 3.826.846 1.613 1.269 3.43 1.269 5.45s-.417 3.842-1.252 5.467c-.835 1.614-2.077 2.895-3.724 3.843-1.648.936-3.696 1.405-6.145 1.405h-8.801v-2.844h8.717c1.817 0 3.323-.339 4.519-1.016 1.196-.688 2.088-1.625 2.675-2.81.598-1.184.897-2.533.897-4.045s-.299-2.861-.897-4.045c-.587-1.185-1.484-2.116-2.692-2.793-1.196-.677-2.714-1.016-4.553-1.016h-7.939v31.822zm29.791 0v-34.666h20.109v2.844h-16.944v13.05h15.877v2.844h-15.877v13.084h17.282v2.844zm28.301 0v-34.666h11.188c2.46 0 4.514.446 6.162 1.338 1.659.88 2.905 2.104 3.741 3.673.846 1.557 1.269 3.346 1.269 5.365 0 2.02-.423 3.803-1.269 5.349-.836 1.546-2.077 2.754-3.724 3.622-1.648.869-3.69 1.304-6.128 1.304h-9.529v-2.895h9.445c1.805 0 3.306-.299 4.502-.897 1.208-.598 2.105-1.45 2.691-2.556.598-1.105.898-2.414.898-3.927 0-1.512-.3-2.832-.898-3.96-.598-1.14-1.5-2.02-2.708-2.641-1.196-.621-2.708-.931-4.536-.931h-7.939v31.822zm15.285-15.64 8.531 15.64h-3.656l-8.447-15.64zm33.607-10.359c-.192-1.93-1.043-3.464-2.556-4.604-1.512-1.14-3.413-1.71-5.704-1.71-1.614 0-3.035.277-4.265.83-1.219.553-2.178 1.32-2.878 2.302-.688.97-1.032 2.076-1.032 3.317 0 .914.197 1.715.592 2.404.395.688.925 1.281 1.591 1.777.677.485 1.422.903 2.234 1.253.824.349 1.654.643 2.489.88l3.656 1.049c1.106.305 2.212.694 3.317 1.168 1.106.474 2.116 1.072 3.03 1.794.926.711 1.665 1.586 2.218 2.624.564 1.027.846 2.263.846 3.707 0 1.851-.48 3.515-1.439 4.993-.959 1.479-2.336 2.652-4.13 3.521-1.794.858-3.944 1.286-6.449 1.286-2.358 0-4.406-.389-6.144-1.168-1.738-.789-3.103-1.878-4.096-3.266s-1.552-2.996-1.676-4.824h3.25c.113 1.365.564 2.522 1.354 3.47.79.947 1.817 1.67 3.08 2.166 1.264.485 2.675.728 4.232.728 1.727 0 3.261-.288 4.604-.863 1.354-.587 2.415-1.4 3.182-2.438.779-1.049 1.168-2.268 1.168-3.656 0-1.173-.304-2.155-.914-2.945-.609-.801-1.461-1.473-2.556-2.014-1.083-.542-2.341-1.022-3.774-1.439l-4.147-1.219c-2.72-.812-4.83-1.935-6.331-3.368s-2.251-3.261-2.251-5.484c0-1.862.496-3.498 1.489-4.909 1.005-1.422 2.359-2.528 4.063-3.318 1.715-.801 3.639-1.201 5.772-1.201 2.155 0 4.062.395 5.721 1.184 1.659.79 2.973 1.879 3.944 3.267.982 1.377 1.506 2.945 1.574 4.706z" fill="#fff"/></g></svg>