<?xml version="1.0" encoding="utf-8"?>
<svg viewBox="0 0 772 250" xmlns="http://www.w3.org/2000/svg">
  <rect width="772" height="250" style="fill: rgb(0, 115, 170);" transform="matrix(1, 0, 0, 1, 0, -3.552713678800501e-15)"/>
  <path d="M 636.041 129.409 L 636.041 26.334 C 636.041 22.791 638.94 19.892 642.483 19.892 L 745.558 19.892 C 749.101 19.892 752 22.791 752 26.334 L 752 129.409 C 752 132.953 749.101 135.852 745.558 135.852 L 642.483 135.852 C 638.94 135.852 636.041 132.953 636.041 129.409 Z M 668.252 32.776 L 668.252 45.661 L 739.116 45.661 L 739.116 32.776 Z M 668.252 58.545 L 668.252 71.43 L 739.116 71.43 L 739.116 58.545 Z M 668.252 84.314 L 668.252 97.198 L 739.116 97.198 L 739.116 84.314 Z M 648.925 116.525 C 648.925 120.068 651.824 122.967 655.367 122.967 C 658.91 122.967 661.809 120.068 661.809 116.525 C 661.809 112.982 658.91 110.083 655.367 110.083 C 651.824 110.083 648.925 112.982 648.925 116.525 Z M 668.252 110.083 L 668.252 122.967 L 739.116 122.967 L 739.116 110.083 Z M 665.652 32.561 L 663.331 30.932 L 654.426 41.206 L 649.974 37.049 L 647.652 39.214 L 653.264 47.079 L 655.586 47.079 Z M 665.652 58.451 L 663.331 56.822 L 654.426 67.096 L 649.974 62.939 L 647.652 65.104 L 653.264 72.969 L 655.586 72.969 Z M 665.652 84.482 L 663.331 82.853 L 654.426 93.127 L 649.974 88.97 L 647.652 91.135 L 653.264 99 L 655.586 99 Z" style="fill: rgb(236, 236, 236);" transform="matrix(1, 0, 0, 1, 0, -3.552713678800501e-15)"/>
  <path d="M 650.044 99.035 L 619.786 56.636 L 632.804 44.502 L 656.437 66.579 L 703.762 11.983 L 716.885 21.188 L 662.91 99.035 Z M 715.497 21.436 L 703.926 13.319 L 656.513 68.019 L 632.804 45.87 L 621.11 56.77 L 650.558 98.035 L 662.386 98.035 Z" style="fill: none;" transform="matrix(1, 0, 0, 1, 0, -3.552713678800501e-15)"/>
</svg>