<?xml version="1.0" encoding="utf-8"?>
<svg viewBox="0 0 500 500" xmlns="http://www.w3.org/2000/svg">
  <path d="M 491.218 250.382 C 491.218 383.897 382.982 492.133 249.467 492.133 C 115.952 492.133 7.716 383.897 7.716 250.382 C 7.716 116.867 115.952 8.631 249.467 8.631 C 382.982 8.631 491.218 116.867 491.218 250.382 Z M 309.41 167.531 L 258.716 218.225 L 288.151 247.661 L 338.846 196.966 C 343.752 192.061 342.117 180.613 333.94 172.436 C 325.763 164.26 315.951 162.624 309.41 167.531 Z M 314.316 89.036 C 302.869 82.495 154.056 208.413 154.056 208.413 C 154.056 208.413 96.82 174.072 88.643 180.613 C 80.467 187.154 154.056 262.378 154.056 262.378 C 154.056 262.378 325.763 93.941 314.316 89.036 Z M 404.258 241.12 C 396.081 232.943 384.635 231.308 379.728 236.213 L 329.034 286.908 L 358.469 316.344 L 409.164 264.014 C 414.07 260.743 412.435 249.296 404.258 241.12 Z M 212.927 224.766 C 201.48 236.213 194.939 268.92 194.939 286.908 L 194.939 349.05 L 175.315 368.674 C 165.503 378.486 165.503 393.203 175.315 403.015 C 185.127 412.827 199.844 412.827 209.656 403.015 L 229.28 383.391 L 291.422 383.391 C 311.046 383.391 340.481 376.85 351.928 365.403 L 371.552 352.32 L 226.01 206.778 Z" style="fill: rgb(0, 115, 170);" transform="matrix(1, 0, 0, 1, 0, -3.552713678800501e-15)"/>
</svg>