<svg fill="none" height="256" viewBox="0 0 256 256" width="256" xmlns="http://www.w3.org/2000/svg" xmlns:xlink="http://www.w3.org/1999/xlink"><linearGradient id="a" gradientUnits="userSpaceOnUse" x1="128" x2="128" y1="0" y2="256"><stop offset="0" stop-color="#3858e9"/><stop offset="1" stop-color="#3755db"/></linearGradient><clipPath id="b"><path d="m0 0h256v256h-256z"/></clipPath><g clip-path="url(#b)"><circle cx="128" cy="128" fill="url(#a)" r="128"/><g fill="#fff"><path d="m133.538 84.8865c3.4-3.3821 8.898-3.3674 12.28.0328 3.244 3.2608 3.229 8.5334-.031 11.7768l-17.928 17.8319-11.996-12.061z"/><path d="m158.197 110.404c3.4-3.382 8.898-3.368 12.28.033 3.244 3.26 3.229 8.533-.031 11.776l-17.928 17.832-11.996-12.06z"/><path clip-rule="evenodd" d="m102.247 100.736 51.033 52.45c-2.126 7.088-14.743 19.421-48.198 12.05l-.967-.822-10.6328 10.632c-3.3911 3.392-8.8892 3.392-12.2804 0-3.2521-3.252-3.2521-8.524 0-11.776l9.9092-9.91-.2045-.174c-3.5439-14.175-6.2373-44.512 11.3405-52.45z" fill-rule="evenodd"/><path d="m205.589 171.911c2.812 1.59 6.398.605 7.812-2.3 8.386-17.24 11.368-36.666 8.474-55.711-3.187-20.977-13.318-40.2789-28.773-54.8168s-35.339-23.4715-56.472-25.3713-42.2919 3.3441-60.0917 14.8925c-17.7999 11.5484-31.2115 28.7338-38.0888 48.8063-6.8772 20.0723-6.8227 41.8713.155 61.9093s20.4752 37.156 38.3327 48.615c16.2123 10.404 35.1678 15.597 54.3288 14.965 3.229-.107 5.589-2.981 5.284-6.197-.306-3.216-3.162-5.554-6.391-5.475-16.551.402-32.8953-4.15-46.9035-13.139-15.6539-10.045-27.4859-25.051-33.6026-42.616s-6.1645-36.675-.1358-54.27c6.0286-17.5959 17.7853-32.6607 33.3887-42.7841 15.6035-10.1234 34.1522-14.7202 52.6772-13.0549 18.525 1.6654 35.956 9.4966 49.503 22.2406 13.548 12.744 22.429 29.6642 25.223 48.0524 2.5 16.456-.004 33.236-7.116 48.186-1.388 2.918-.417 6.479 2.396 8.068z"/><path d="m156.147 222.4c1.403 1.393 3.304 2.177 5.288 2.177 1.983 0 3.885-.783 5.288-2.177l29.913-29.717c2.921-2.902 2.921-7.606 0-10.507s-7.656-2.901-10.576 0l-24.625 24.464-9.669-9.605c-2.92-2.902-7.655-2.901-10.576 0-2.92 2.901-2.92 7.605 0 10.507z"/></g></g></svg>